<svg width="46" height="40" viewBox="0 0 46 40" fill="none" xmlns="http://www.w3.org/2000/svg">
<g filter="url(#filter0_d_39_565)">
<path d="M13 28C13 28 12 29.5 12.5 30.5C13 31.5 12 33 12 33" stroke="#73A3ED" stroke-width="1.5" stroke-linecap="round"/>
<path d="M23 28C23 28 22 29.5 22.5 30.5C23 31.5 22 33 22 33" stroke="#73A3ED" stroke-width="1.5" stroke-linecap="round"/>
<path d="M33 28C33 28 32 29.5 32.5 30.5C33 31.5 32 33 32 33" stroke="#73A3ED" stroke-width="1.5" stroke-linecap="round"/>
<path fill-rule="evenodd" clip-rule="evenodd" d="M3 19L3.87735 25.1414C3.94772 25.6341 4.36964 26 4.86729 26H41.1327C41.6304 26 42.0523 25.6341 42.1227 25.1414L43 19H3ZM4.72951 20.5L5.30094 24.5H40.6991L41.2705 20.5H4.72951Z" fill="#73A3ED"/>
<mask id="path-5-inside-1_39_565" fill="white">
<path fill-rule="evenodd" clip-rule="evenodd" d="M40 9.5H6C5.17157 9.5 4.5 10.1716 4.5 11V19H41.5V11C41.5 10.1716 40.8284 9.5 40 9.5ZM6 8C4.34315 8 3 9.34315 3 11V19C3 19.5523 3.44771 20 4 20H42C42.5523 20 43 19.5523 43 19V11C43 9.34315 41.6569 8 40 8H6Z"/>
</mask>
<path d="M4.5 19H3V20.5H4.5V19ZM41.5 19V20.5H43V19H41.5ZM6 11H40V8H6V11ZM6 11V8C4.34315 8 3 9.34315 3 11H6ZM6 19V11H3V19H6ZM41.5 17.5H4.5V20.5H41.5V17.5ZM40 11V19H43V11H40ZM40 11H43C43 9.34314 41.6569 8 40 8V11ZM4.5 11C4.5 10.1716 5.17157 9.5 6 9.5V6.5C3.51472 6.5 1.5 8.51472 1.5 11H4.5ZM4.5 19V11H1.5V19H4.5ZM4 18.5C4.27614 18.5 4.5 18.7239 4.5 19H1.5C1.5 20.3807 2.61928 21.5 4 21.5V18.5ZM42 18.5H4V21.5H42V18.5ZM41.5 19C41.5 18.7239 41.7239 18.5 42 18.5V21.5C43.3807 21.5 44.5 20.3807 44.5 19H41.5ZM41.5 11V19H44.5V11H41.5ZM40 9.5C40.8284 9.5 41.5 10.1716 41.5 11H44.5C44.5 8.51472 42.4853 6.5 40 6.5V9.5ZM6 9.5H40V6.5H6V9.5Z" fill="#73A3ED" mask="url(#path-5-inside-1_39_565)"/>
<path d="M12 23H34" stroke="#73A3ED" stroke-width="1.5" stroke-linecap="round"/>
</g>
<defs>
<filter id="filter0_d_39_565" x="0" y="6" width="46" height="31.7501" filterUnits="userSpaceOnUse" color-interpolation-filters="sRGB">
<feFlood flood-opacity="0" result="BackgroundImageFix"/>
<feColorMatrix in="SourceAlpha" type="matrix" values="0 0 0 0 0 0 0 0 0 0 0 0 0 0 0 0 0 0 127 0" result="hardAlpha"/>
<feOffset dy="1"/>
<feGaussianBlur stdDeviation="1.5"/>
<feComposite in2="hardAlpha" operator="out"/>
<feColorMatrix type="matrix" values="0 0 0 0 0.0705903 0 0 0 0 0.16166 0 0 0 0 0.395833 0 0 0 0.25 0"/>
<feBlend mode="normal" in2="BackgroundImageFix" result="effect1_dropShadow_39_565"/>
<feBlend mode="normal" in="SourceGraphic" in2="effect1_dropShadow_39_565" result="shape"/>
</filter>
</defs>
</svg>
