<svg width="46" height="40" viewBox="0 0 46 40" fill="none" xmlns="http://www.w3.org/2000/svg">
<g filter="url(#filter0_d_39_516)">
<g filter="url(#filter1_d_39_516)">
<path fill-rule="evenodd" clip-rule="evenodd" d="M3 19L3.87735 25.1414C3.94772 25.6341 4.36964 26 4.86729 26H41.1327C41.6304 26 42.0523 25.6341 42.1227 25.1414L43 19H3ZM4.72951 20.5L5.30094 24.5H40.6991L41.2705 20.5H4.72951Z" fill="#2B5EAE"/>
<path fill-rule="evenodd" clip-rule="evenodd" d="M40 9.5H6C5.17157 9.5 4.5 10.1716 4.5 11V19H41.5V11C41.5 10.1716 40.8284 9.5 40 9.5ZM6 8C4.34315 8 3 9.34315 3 11V19C3 19.5523 3.44771 20 4 20H42C42.5523 20 43 19.5523 43 19V11C43 9.34315 41.6569 8 40 8H6Z" fill="#2B5EAE"/>
</g>
<path d="M12 23H34" stroke="#2B5EAE" stroke-width="1.5" stroke-linecap="round"/>
</g>
<defs>
<filter id="filter0_d_39_516" x="0" y="-2" width="46" height="46" filterUnits="userSpaceOnUse" color-interpolation-filters="sRGB">
<feFlood flood-opacity="0" result="BackgroundImageFix"/>
<feColorMatrix in="SourceAlpha" type="matrix" values="0 0 0 0 0 0 0 0 0 0 0 0 0 0 0 0 0 0 127 0" result="hardAlpha"/>
<feOffset dy="1"/>
<feGaussianBlur stdDeviation="1.5"/>
<feComposite in2="hardAlpha" operator="out"/>
<feColorMatrix type="matrix" values="0 0 0 0 0.0705903 0 0 0 0 0.16166 0 0 0 0 0.395833 0 0 0 0.25 0"/>
<feBlend mode="normal" in2="BackgroundImageFix" result="effect1_dropShadow_39_516"/>
<feBlend mode="normal" in="SourceGraphic" in2="effect1_dropShadow_39_516" result="shape"/>
</filter>
<filter id="filter1_d_39_516" x="0" y="6" width="46" height="24" filterUnits="userSpaceOnUse" color-interpolation-filters="sRGB">
<feFlood flood-opacity="0" result="BackgroundImageFix"/>
<feColorMatrix in="SourceAlpha" type="matrix" values="0 0 0 0 0 0 0 0 0 0 0 0 0 0 0 0 0 0 127 0" result="hardAlpha"/>
<feOffset dy="1"/>
<feGaussianBlur stdDeviation="1.5"/>
<feComposite in2="hardAlpha" operator="out"/>
<feColorMatrix type="matrix" values="0 0 0 0 0.0705903 0 0 0 0 0.16166 0 0 0 0 0.395833 0 0 0 0.25 0"/>
<feBlend mode="normal" in2="BackgroundImageFix" result="effect1_dropShadow_39_516"/>
<feBlend mode="normal" in="SourceGraphic" in2="effect1_dropShadow_39_516" result="shape"/>
</filter>
</defs>
</svg>
