<svg width="40" height="40" viewBox="0 0 40 40" fill="none" xmlns="http://www.w3.org/2000/svg">
<g clip-path="url(#clip0_39_530)">
<g filter="url(#filter0_d_39_530)">
<path fill-rule="evenodd" clip-rule="evenodd" d="M35.5851 15.5604L17.2362 4.84219C16.4016 4.3547 15.3299 4.63605 14.8424 5.4706L12.951 8.70864L32.811 20.3095L35.5851 15.5604ZM17.9928 3.54697C16.4429 2.64163 14.4526 3.16414 13.5472 4.71402L10.8992 9.24728L32.4142 21.8149C32.9308 22.1167 33.5943 21.9425 33.896 21.4259L37.0905 15.9572C37.3923 15.4406 37.2181 14.7771 36.7015 14.4753L17.9928 3.54697Z" fill="#2B5EAE"/>
<path fill-rule="evenodd" clip-rule="evenodd" d="M29.223 22.7459L30.4403 20.662L12.1944 10.004L11.3134 11.5123C11.1277 11.8302 11.2349 12.2385 11.5528 12.4242L29.223 22.7459ZM28.8262 24.2513C29.3428 24.5531 30.0062 24.3789 30.308 23.8623L32.4921 20.1233L12.5912 8.49858C12.0746 8.1968 11.4112 8.37097 11.1094 8.88759L10.0182 10.7557C9.4146 11.789 9.76294 13.1159 10.7962 13.7194L28.8262 24.2513Z" fill="#2B5EAE"/>
<path d="M11 22C13.1334 22 13.6667 21.8571 15.2667 21.4286C16.8667 21 19 18 19 18" stroke="#2B5EAE" stroke-width="1.5"/>
<path d="M11 25C13.9334 25 14.6667 24.7857 16.8667 24.1429C19.0667 23.5 22 19 22 19" stroke="#2B5EAE" stroke-width="1.5"/>
<path fill-rule="evenodd" clip-rule="evenodd" d="M9.50001 17.5L7.50001 17.5L7.50001 29.5L9.50001 29.5L9.50001 17.5ZM6.00001 16L6.00001 31L10 31C10.5523 31 11 30.5523 11 30L11 17C11 16.4477 10.5523 16 10 16L6.00001 16Z" fill="#2B5EAE"/>
</g>
<path fill-rule="evenodd" clip-rule="evenodd" d="M28.3756 22.0975L31.8998 24.1561C33.3304 24.9918 35.1677 24.5095 36.0034 23.0788L37.5722 20.3931C38.4079 18.9625 37.9256 17.1252 36.4949 16.2895L36.1938 16.1136L35.4288 17.4039L35.7383 17.5847C36.4537 18.0026 36.6948 18.9212 36.277 19.6365L34.7082 22.3222C34.2903 23.0376 33.3717 23.2787 32.6564 22.8609L30.7512 21.748L30 23L28.3756 22.0975Z" fill="#2B5EAE"/>
<path d="M17.2572 6.57129L22.2572 9.57129" stroke="#2B5EAE" stroke-linecap="round"/>
</g>
<defs>
<filter id="filter0_d_39_530" x="3.00001" y="1.10278" width="37.2386" height="33.8972" filterUnits="userSpaceOnUse" color-interpolation-filters="sRGB">
<feFlood flood-opacity="0" result="BackgroundImageFix"/>
<feColorMatrix in="SourceAlpha" type="matrix" values="0 0 0 0 0 0 0 0 0 0 0 0 0 0 0 0 0 0 127 0" result="hardAlpha"/>
<feOffset dy="1"/>
<feGaussianBlur stdDeviation="1.5"/>
<feComposite in2="hardAlpha" operator="out"/>
<feColorMatrix type="matrix" values="0 0 0 0 0.0705903 0 0 0 0 0.16166 0 0 0 0 0.395833 0 0 0 0.25 0"/>
<feBlend mode="normal" in2="BackgroundImageFix" result="effect1_dropShadow_39_530"/>
<feBlend mode="normal" in="SourceGraphic" in2="effect1_dropShadow_39_530" result="shape"/>
</filter>
<clipPath id="clip0_39_530">
<rect width="40" height="40" fill="white"/>
</clipPath>
</defs>
</svg>
