<svg width="40" height="40" viewBox="0 0 40 40" fill="none" xmlns="http://www.w3.org/2000/svg">
<g filter="url(#filter0_d_155_595)">
<path fill-rule="evenodd" clip-rule="evenodd" d="M34 9.5H6C5.17157 9.5 4.5 10.1716 4.5 11V29C4.5 29.8284 5.17157 30.5 6 30.5H34C34.8284 30.5 35.5 29.8284 35.5 29V11C35.5 10.1716 34.8284 9.5 34 9.5ZM6 8C4.34315 8 3 9.34315 3 11V29C3 30.6569 4.34315 32 6 32H34C35.6569 32 37 30.6569 37 29V11C37 9.34315 35.6569 8 34 8H6Z" fill="#2B5EAE"/>
<path fill-rule="evenodd" clip-rule="evenodd" d="M31 13.5H9C8.72386 13.5 8.5 13.7239 8.5 14V26C8.5 26.2761 8.72386 26.5 9 26.5H31C31.2761 26.5 31.5 26.2761 31.5 26V14C31.5 13.7239 31.2761 13.5 31 13.5ZM9 12C7.89543 12 7 12.8954 7 14V26C7 27.1046 7.89543 28 9 28H31C32.1046 28 33 27.1046 33 26V14C33 12.8954 32.1046 12 31 12H9Z" fill="#2B5EAE"/>
<path d="M13.72 22.02C13.72 23.29 12.79 24.06 11.66 24.06C10.53 24.06 9.60999 23.29 9.60999 22.02V18.86C9.60999 17.59 10.53 16.82 11.66 16.82C12.79 16.82 13.72 17.59 13.72 18.86V22.02ZM12.7 21.99V18.89C12.7 18.2 12.31 17.73 11.66 17.73C11.01 17.73 10.63 18.2 10.63 18.89V21.99C10.63 22.68 11.01 23.15 11.66 23.15C12.31 23.15 12.7 22.68 12.7 21.99Z" fill="#2B5EAE"/>
<path d="M20.55 24H19.53V17.99L18.14 19.21V18.08L19.53 16.88H20.55V24Z" fill="#2B5EAE"/>
<path fill-rule="evenodd" clip-rule="evenodd" d="M28.1725 13L25.63 16.09V17H29.77V16.09H26.87L29.1 13.36C29.204 13.2324 29.2962 13.1143 29.3765 13H28.1725Z" fill="#2B5EAE"/>
<path fill-rule="evenodd" clip-rule="evenodd" d="M29.5608 27C29.701 26.7206 29.78 26.387 29.78 26C29.78 25.12 29.39 24.59 28.78 24.32C29.33 24.05 29.67 23.56 29.67 22.8C29.67 21.62 28.81 20.81 27.6 20.81C26.46 20.81 25.57 21.54 25.51 22.75H26.53C26.58 22.12 26.98 21.73 27.6 21.73C28.18 21.73 28.65 22.11 28.65 22.83C28.65 23.48 28.31 23.91 27.57 23.91H27.4V24.8H27.57C28.37 24.8 28.76 25.25 28.76 25.97C28.76 26.4604 28.5462 26.814 28.2138 27H29.5608ZM25.6319 27C25.5059 26.7409 25.4304 26.4319 25.42 26.07H26.44C26.4645 26.5366 26.6738 26.8373 26.9682 27H25.6319Z" fill="#2B5EAE"/>
<path fill-rule="evenodd" clip-rule="evenodd" d="M15 27V13H16V27H15Z" fill="#2B5EAE"/>
<path fill-rule="evenodd" clip-rule="evenodd" d="M23 27V13H24V27H23Z" fill="#2B5EAE"/>
</g>
<defs>
<filter id="filter0_d_155_595" x="0" y="6" width="40" height="30" filterUnits="userSpaceOnUse" color-interpolation-filters="sRGB">
<feFlood flood-opacity="0" result="BackgroundImageFix"/>
<feColorMatrix in="SourceAlpha" type="matrix" values="0 0 0 0 0 0 0 0 0 0 0 0 0 0 0 0 0 0 127 0" result="hardAlpha"/>
<feOffset dy="1"/>
<feGaussianBlur stdDeviation="1.5"/>
<feComposite in2="hardAlpha" operator="out"/>
<feColorMatrix type="matrix" values="0 0 0 0 0.0705903 0 0 0 0 0.16166 0 0 0 0 0.395833 0 0 0 0.25 0"/>
<feBlend mode="normal" in2="BackgroundImageFix" result="effect1_dropShadow_155_595"/>
<feBlend mode="normal" in="SourceGraphic" in2="effect1_dropShadow_155_595" result="shape"/>
</filter>
</defs>
</svg>
