<svg width="40" height="40" viewBox="0 0 40 40" fill="none" xmlns="http://www.w3.org/2000/svg">
<g clip-path="url(#clip0_257_1177)">
<g filter="url(#filter0_d_257_1177)">
<path fill-rule="evenodd" clip-rule="evenodd" d="M4.75 4.75V34.0515C5.07145 33.8822 5.48087 33.75 6 33.75C6.79247 33.75 7.42043 34.1112 7.90378 34.48C8.40713 34.0675 9.10148 33.75 10 33.75C10.48 33.75 10.9039 33.828 11.3216 34.011C11.6161 34.14 11.8889 34.3133 12.1601 34.5179C12.6008 34.1878 13.3379 33.75 14.5 33.75C15.1845 33.75 15.7851 33.9608 16.25 34.1913V4.75H4.75ZM3.25 4.3C3.25 3.7201 3.7201 3.25 4.3 3.25H16.7C17.2799 3.25 17.75 3.7201 17.75 4.3V35.4722C17.75 35.5472 17.7398 35.6813 17.6662 35.8269C17.5823 35.9927 17.4392 36.1264 17.2583 36.1964C16.9796 36.3042 16.7377 36.2134 16.6953 36.1975L16.6919 36.1962C16.5688 36.1508 16.4529 36.0742 16.4027 36.041L16.3971 36.0373C16.3486 36.0052 16.3018 35.9733 16.254 35.9408C16.1496 35.8695 16.0405 35.7951 15.8979 35.7088C15.4966 35.4659 15.013 35.25 14.5 35.25C13.6361 35.25 13.2053 35.5976 12.8611 35.8752C12.8348 35.8964 12.809 35.9172 12.7836 35.9374C12.3627 36.2718 11.8305 36.1825 11.506 35.9136C11.1723 35.637 10.935 35.4793 10.7197 35.3849C10.5182 35.2966 10.3038 35.25 10 35.25C9.38733 35.25 8.9777 35.4969 8.70435 35.7783C8.34098 36.1524 7.69761 36.2576 7.22924 35.8627C6.7488 35.4576 6.38902 35.25 6 35.25C5.55325 35.25 5.3746 35.4024 5.05761 35.6728C4.99262 35.7283 4.92181 35.7887 4.84169 35.8537C4.51713 36.1173 4.08522 36.1436 3.74377 35.9433C3.42588 35.7569 3.25 35.4157 3.25 35.0642V4.3Z" fill="#2B5EAE"/>
<path d="M8 35V11.5" stroke="#2B5EAE" stroke-linecap="round"/>
<path d="M12 5.5V14" stroke="#2B5EAE" stroke-linecap="round"/>
<path d="M12 34.5V22" stroke="#2B5EAE" stroke-linecap="round"/>
<path fill-rule="evenodd" clip-rule="evenodd" d="M23.75 4.75V34.0515C24.0714 33.8822 24.4809 33.75 25 33.75C25.7925 33.75 26.4204 34.1111 26.9038 34.48C27.4071 34.0675 28.1015 33.75 29 33.75C29.48 33.75 29.9039 33.828 30.3216 34.011C30.6161 34.14 30.8889 34.3133 31.1601 34.5179C31.6008 34.1878 32.3379 33.75 33.5 33.75C34.1845 33.75 34.7851 33.9608 35.25 34.1913V4.75H23.75ZM22.25 4.3C22.25 3.7201 22.7201 3.25 23.3 3.25H35.7C36.2799 3.25 36.75 3.7201 36.75 4.3V35.4722C36.75 35.5472 36.7398 35.6813 36.6662 35.8269C36.5823 35.9927 36.4392 36.1263 36.2583 36.1963C35.9796 36.3042 35.7377 36.2134 35.6953 36.1975L35.6919 36.1962C35.5687 36.1508 35.4528 36.0741 35.4026 36.0409L35.3971 36.0373C35.3486 36.0052 35.3018 35.9733 35.254 35.9407C35.1496 35.8695 35.0405 35.7951 34.8979 35.7088C34.4966 35.4659 34.013 35.25 33.5 35.25C32.6361 35.25 32.2053 35.5975 31.8611 35.8752C31.8348 35.8964 31.809 35.9172 31.7836 35.9374C31.3627 36.2718 30.8305 36.1825 30.506 35.9136C30.1723 35.637 29.935 35.4792 29.7197 35.3849C29.5182 35.2966 29.3038 35.25 29 35.25C28.3873 35.25 27.9777 35.4969 27.7043 35.7783C27.341 36.1524 26.6976 36.2576 26.2292 35.8627C25.7488 35.4576 25.389 35.25 25 35.25C24.5533 35.25 24.3746 35.4024 24.0576 35.6728C23.9926 35.7283 23.9218 35.7887 23.8417 35.8537C23.5171 36.1173 23.0852 36.1436 22.7438 35.9433C22.4259 35.7568 22.25 35.4156 22.25 35.0641V4.3Z" fill="#2B5EAE"/>
<path d="M27 35V25" stroke="#2B5EAE" stroke-linecap="round"/>
<path d="M27 5.5V19" stroke="#2B5EAE" stroke-linecap="round"/>
<path d="M31 34.5V15.5" stroke="#2B5EAE" stroke-linecap="round"/>
<path d="M3.5 4H36.5" stroke="#2B5EAE" stroke-width="1.5" stroke-linecap="round"/>
</g>
</g>
<defs>
<filter id="filter0_d_257_1177" x="-0.25" y="1.25" width="40.5" height="38.9984" filterUnits="userSpaceOnUse" color-interpolation-filters="sRGB">
<feFlood flood-opacity="0" result="BackgroundImageFix"/>
<feColorMatrix in="SourceAlpha" type="matrix" values="0 0 0 0 0 0 0 0 0 0 0 0 0 0 0 0 0 0 127 0" result="hardAlpha"/>
<feOffset dy="1"/>
<feGaussianBlur stdDeviation="1.5"/>
<feComposite in2="hardAlpha" operator="out"/>
<feColorMatrix type="matrix" values="0 0 0 0 0.0705903 0 0 0 0 0.16166 0 0 0 0 0.395833 0 0 0 0.25 0"/>
<feBlend mode="normal" in2="BackgroundImageFix" result="effect1_dropShadow_257_1177"/>
<feBlend mode="normal" in="SourceGraphic" in2="effect1_dropShadow_257_1177" result="shape"/>
</filter>
<clipPath id="clip0_257_1177">
<rect width="40" height="40" fill="white"/>
</clipPath>
</defs>
</svg>
