<svg width="40" height="40" viewBox="0 0 40 40" fill="none" xmlns="http://www.w3.org/2000/svg">
<g clip-path="url(#clip0_283_787)">
<g filter="url(#filter0_d_283_787)">
<circle cx="24.5" cy="23.5" r="1" stroke="#2B5EAE"/>
<path d="M8.5 4H31.7C31.8657 4 32 4.13431 32 4.3V36" stroke="#2B5EAE" stroke-width="1.5" stroke-linecap="round"/>
<path d="M8.5 4.05316V36" stroke="#2B5EAE" stroke-width="1.5" stroke-linecap="round"/>
<path fill-rule="evenodd" clip-rule="evenodd" d="M10.75 7.5C10.75 6.80964 11.3096 6.25 12 6.25L28.7 6.25001C29.2799 6.25001 29.75 6.72011 29.75 7.30001V35.7C29.75 36.2799 29.2799 36.75 28.7 36.75H10.75V7.5ZM12.25 7.75V35.25H28.25V7.75001L12.25 7.75Z" fill="#2B5EAE"/>
<path d="M33.5 36H28" stroke="#2B5EAE" stroke-width="1.5" stroke-linecap="round"/>
<path d="M11.5 36H7" stroke="#2B5EAE" stroke-width="1.5" stroke-linecap="round"/>
</g>
</g>
<defs>
<filter id="filter0_d_283_787" x="3.25" y="1.25" width="34" height="39.5" filterUnits="userSpaceOnUse" color-interpolation-filters="sRGB">
<feFlood flood-opacity="0" result="BackgroundImageFix"/>
<feColorMatrix in="SourceAlpha" type="matrix" values="0 0 0 0 0 0 0 0 0 0 0 0 0 0 0 0 0 0 127 0" result="hardAlpha"/>
<feOffset dy="1"/>
<feGaussianBlur stdDeviation="1.5"/>
<feComposite in2="hardAlpha" operator="out"/>
<feColorMatrix type="matrix" values="0 0 0 0 0.0705903 0 0 0 0 0.16166 0 0 0 0 0.395833 0 0 0 0.25 0"/>
<feBlend mode="normal" in2="BackgroundImageFix" result="effect1_dropShadow_283_787"/>
<feBlend mode="normal" in="SourceGraphic" in2="effect1_dropShadow_283_787" result="shape"/>
</filter>
<clipPath id="clip0_283_787">
<rect width="40" height="40" fill="white"/>
</clipPath>
</defs>
</svg>
