<svg width="40" height="40" viewBox="0 0 40 40" fill="none" xmlns="http://www.w3.org/2000/svg">
<g filter="url(#filter0_d_45_1191)">
<mask id="path-1-inside-1_45_1191" fill="white">
<path d="M7.99998 17C7.99998 16.4477 8.4477 16 8.99998 16H30C30.5523 16 31 16.4477 31 17V33H7.99998V17Z"/>
</mask>
<path d="M7.99998 17C7.99998 16.4477 8.4477 16 8.99998 16H30C30.5523 16 31 16.4477 31 17V33H7.99998V17Z" stroke="#2B5EAE" stroke-width="3" mask="url(#path-1-inside-1_45_1191)"/>
<path d="M4.75 32.25V14.4842L19.5 7.82294L34.25 14.4842V32.25H4.75Z" stroke="#2B5EAE" stroke-width="1.5"/>
<line x1="8.99998" y1="22.25" x2="31" y2="22.25" stroke="#2B5EAE" stroke-width="1.5"/>
<line x1="8.99998" y1="27.25" x2="31" y2="27.25" stroke="#2B5EAE" stroke-width="1.5"/>
<path d="M19.3962 7.87646L3.94106 14.8694" stroke="#2B5EAE" stroke-width="1.5" stroke-linecap="round"/>
<path d="M19.9743 8.05835L35.4745 15.0586" stroke="#2B5EAE" stroke-width="1.5" stroke-linecap="round"/>
</g>
<defs>
<filter id="filter0_d_45_1191" x="0.190887" y="5" width="39.0338" height="32" filterUnits="userSpaceOnUse" color-interpolation-filters="sRGB">
<feFlood flood-opacity="0" result="BackgroundImageFix"/>
<feColorMatrix in="SourceAlpha" type="matrix" values="0 0 0 0 0 0 0 0 0 0 0 0 0 0 0 0 0 0 127 0" result="hardAlpha"/>
<feOffset dy="1"/>
<feGaussianBlur stdDeviation="1.5"/>
<feComposite in2="hardAlpha" operator="out"/>
<feColorMatrix type="matrix" values="0 0 0 0 0.0705903 0 0 0 0 0.16166 0 0 0 0 0.395833 0 0 0 0.25 0"/>
<feBlend mode="normal" in2="BackgroundImageFix" result="effect1_dropShadow_45_1191"/>
<feBlend mode="normal" in="SourceGraphic" in2="effect1_dropShadow_45_1191" result="shape"/>
</filter>
</defs>
</svg>
