<svg width="40" height="40" viewBox="0 0 40 40" fill="none" xmlns="http://www.w3.org/2000/svg">
<g filter="url(#filter0_d_287_934)">
<path fill-rule="evenodd" clip-rule="evenodd" d="M16.9135 12.6796C16.6246 13.4947 16.5 14.1098 16.5 14.5C16.5 16.433 18.067 18 20 18C21.933 18 23.5 16.433 23.5 14.5C23.5 14.1098 23.3754 13.4947 23.0865 12.6796C22.8065 11.8894 22.4081 11.0105 21.9485 10.1277C21.3223 8.92506 20.6149 7.77708 20 6.89874C19.3851 7.77708 18.6777 8.92506 18.0515 10.1277C17.5919 11.0105 17.1935 11.8894 16.9135 12.6796ZM19.6638 4.86747C18.0349 6.77559 15 11.9286 15 14.5C15 17.2614 17.2386 19.5 20 19.5C22.7614 19.5 25 17.2614 25 14.5C25 11.9286 21.9651 6.77559 20.3362 4.86747C20.1569 4.65744 19.8431 4.65744 19.6638 4.86747Z" fill="#2B5EAE"/>
<path fill-rule="evenodd" clip-rule="evenodd" d="M32.5 34V30.5C32.5 29.6716 31.8284 29 31 29L9 29C8.17157 29 7.5 29.6716 7.5 30.5V34H32.5ZM33 35.5C33.5523 35.5 34 35.0523 34 34.5V30.5C34 28.8431 32.6569 27.5 31 27.5L9 27.5C7.34315 27.5 6 28.8431 6 30.5V34.5C6 35.0523 6.44771 35.5 7 35.5H33Z" fill="#2B5EAE"/>
<path d="M30 28V26C30 24.8954 29.1046 24 28 24H12C10.8954 24 10 24.8954 10 26V28" stroke="#2B5EAE" stroke-width="1.5" stroke-linecap="round"/>
<path d="M20 34.5V31.5" stroke="#2B5EAE" stroke-width="1.5" stroke-linecap="round"/>
<path d="M14 34.5V31.5" stroke="#2B5EAE" stroke-width="1.5" stroke-linecap="round"/>
<path d="M26 34.5V31.5" stroke="#2B5EAE" stroke-width="1.5" stroke-linecap="round"/>
</g>
<defs>
<filter id="filter0_d_287_934" x="3" y="2.70996" width="34" height="36.79" filterUnits="userSpaceOnUse" color-interpolation-filters="sRGB">
<feFlood flood-opacity="0" result="BackgroundImageFix"/>
<feColorMatrix in="SourceAlpha" type="matrix" values="0 0 0 0 0 0 0 0 0 0 0 0 0 0 0 0 0 0 127 0" result="hardAlpha"/>
<feOffset dy="1"/>
<feGaussianBlur stdDeviation="1.5"/>
<feComposite in2="hardAlpha" operator="out"/>
<feColorMatrix type="matrix" values="0 0 0 0 0.0705903 0 0 0 0 0.16166 0 0 0 0 0.395833 0 0 0 0.25 0"/>
<feBlend mode="normal" in2="BackgroundImageFix" result="effect1_dropShadow_287_934"/>
<feBlend mode="normal" in="SourceGraphic" in2="effect1_dropShadow_287_934" result="shape"/>
</filter>
</defs>
</svg>
