<svg width="40" height="40" viewBox="0 0 40 40" fill="none" xmlns="http://www.w3.org/2000/svg">
<g filter="url(#filter0_d_299_1550)">
<mask id="path-1-inside-1_299_1550" fill="white">
<path fill-rule="evenodd" clip-rule="evenodd" d="M11 16.5C10.4477 16.5 10 16.9477 10 17.5V32.5C10 33.0523 10.4477 33.5 11 33.5H29C29.5523 33.5 30 33.0523 30 32.5V17.5C30 16.9477 29.5523 16.5 29 16.5H11ZM21 23C21 22.4477 20.5523 22 20 22C19.4477 22 19 22.4477 19 23V26C19 26.5523 19.4477 27 20 27C20.5523 27 21 26.5523 21 26V23Z"/>
</mask>
<path fill-rule="evenodd" clip-rule="evenodd" d="M11 16.5C10.4477 16.5 10 16.9477 10 17.5V32.5C10 33.0523 10.4477 33.5 11 33.5H29C29.5523 33.5 30 33.0523 30 32.5V17.5C30 16.9477 29.5523 16.5 29 16.5H11ZM21 23C21 22.4477 20.5523 22 20 22C19.4477 22 19 22.4477 19 23V26C19 26.5523 19.4477 27 20 27C20.5523 27 21 26.5523 21 26V23Z" fill="#2B5EAE"/>
<path d="M11.5 17.5C11.5 17.7761 11.2761 18 11 18V15C9.61929 15 8.5 16.1193 8.5 17.5H11.5ZM11.5 32.5V17.5H8.5V32.5H11.5ZM11 32C11.2761 32 11.5 32.2239 11.5 32.5H8.5C8.5 33.8807 9.61929 35 11 35V32ZM29 32H11V35H29V32ZM28.5 32.5C28.5 32.2239 28.7239 32 29 32V35C30.3807 35 31.5 33.8807 31.5 32.5H28.5ZM28.5 17.5V32.5H31.5V17.5H28.5ZM29 18C28.7239 18 28.5 17.7761 28.5 17.5H31.5C31.5 16.1193 30.3807 15 29 15V18ZM11 18H29V15H11V18ZM20 23.5C19.7239 23.5 19.5 23.2761 19.5 23H22.5C22.5 21.6193 21.3807 20.5 20 20.5V23.5ZM20.5 23C20.5 23.2761 20.2761 23.5 20 23.5V20.5C18.6193 20.5 17.5 21.6193 17.5 23H20.5ZM20.5 26V23H17.5V26H20.5ZM20 25.5C20.2761 25.5 20.5 25.7239 20.5 26H17.5C17.5 27.3807 18.6193 28.5 20 28.5V25.5ZM19.5 26C19.5 25.7239 19.7239 25.5 20 25.5V28.5C21.3807 28.5 22.5 27.3807 22.5 26H19.5ZM19.5 23V26H22.5V23H19.5Z" fill="#2B5EAE" mask="url(#path-1-inside-1_299_1550)"/>
<path d="M25.1523 12C24.8143 12 24.5043 11.8251 24.2928 11.5614C23.2848 10.3046 21.7364 9.5 20 9.5C16.9624 9.5 14.5 11.9624 14.5 15V16.5H23V18H28V19H12V15C12 10.5817 15.5817 7 20 7C22.8289 7 25.3148 8.46828 26.7373 10.6843C27.1204 11.2812 26.6441 12 25.9349 12H25.1523Z" fill="#2B5EAE"/>
</g>
<defs>
<filter id="filter0_d_299_1550" x="7" y="5" width="26" height="32.5" filterUnits="userSpaceOnUse" color-interpolation-filters="sRGB">
<feFlood flood-opacity="0" result="BackgroundImageFix"/>
<feColorMatrix in="SourceAlpha" type="matrix" values="0 0 0 0 0 0 0 0 0 0 0 0 0 0 0 0 0 0 127 0" result="hardAlpha"/>
<feOffset dy="1"/>
<feGaussianBlur stdDeviation="1.5"/>
<feComposite in2="hardAlpha" operator="out"/>
<feColorMatrix type="matrix" values="0 0 0 0 0.0705903 0 0 0 0 0.16166 0 0 0 0 0.395833 0 0 0 0.25 0"/>
<feBlend mode="normal" in2="BackgroundImageFix" result="effect1_dropShadow_299_1550"/>
<feBlend mode="normal" in="SourceGraphic" in2="effect1_dropShadow_299_1550" result="shape"/>
</filter>
</defs>
</svg>
