<svg width="40" height="40" viewBox="0 0 40 40" fill="none" xmlns="http://www.w3.org/2000/svg">
<g filter="url(#filter0_d_22_143)">
<path fill-rule="evenodd" clip-rule="evenodd" d="M31.5 8.5H8.5V11.5H31.5V8.5ZM7 7V12C7 12.5523 7.44772 13 8 13H32C32.5523 13 33 12.5523 33 12V7H7Z" fill="#2B5EAE"/>
<path d="M15 21C16 21.8 17.5 23 20 23C22.5 23 24 21.8 25 21" stroke="#2B5EAE" stroke-width="1.5" stroke-linecap="round"/>
<path d="M11 23.5C12.2857 24.6429 15.5 27.5 20 27.5C24.5 27.5 27.7143 24.6429 29 23.5" stroke="#2B5EAE" stroke-width="1.5" stroke-linecap="round"/>
<path d="M7 26.5C8.85714 28.2143 13.5 32.5 20 32.5C26.5 32.5 31.1429 28.2143 33 26.5" stroke="#2B5EAE" stroke-width="1.5" stroke-linecap="round"/>
<path fill-rule="evenodd" clip-rule="evenodd" d="M14 13C14 16.3137 16.6863 19 20 19C23.3137 19 26 16.3137 26 13H24.5C24.5 15.4853 22.4853 17.5 20 17.5C17.5147 17.5 15.5 15.4853 15.5 13H14Z" fill="#2B5EAE"/>
</g>
<defs>
<filter id="filter0_d_22_143" x="-3" y="-2" width="46" height="46" filterUnits="userSpaceOnUse" color-interpolation-filters="sRGB">
<feFlood flood-opacity="0" result="BackgroundImageFix"/>
<feColorMatrix in="SourceAlpha" type="matrix" values="0 0 0 0 0 0 0 0 0 0 0 0 0 0 0 0 0 0 127 0" result="hardAlpha"/>
<feOffset dy="1"/>
<feGaussianBlur stdDeviation="1.5"/>
<feComposite in2="hardAlpha" operator="out"/>
<feColorMatrix type="matrix" values="0 0 0 0 0.0705903 0 0 0 0 0.16166 0 0 0 0 0.395833 0 0 0 0.25 0"/>
<feBlend mode="normal" in2="BackgroundImageFix" result="effect1_dropShadow_22_143"/>
<feBlend mode="normal" in="SourceGraphic" in2="effect1_dropShadow_22_143" result="shape"/>
</filter>
</defs>
</svg>
