<svg width="40" height="40" viewBox="0 0 40 40" fill="none" xmlns="http://www.w3.org/2000/svg">
<g filter="url(#filter0_d_45_1269)">
<path fill-rule="evenodd" clip-rule="evenodd" d="M5.5 5.5V34.5H34.5V5.5H5.5ZM5 4C4.44772 4 4 4.44772 4 5V35C4 35.5523 4.44772 36 5 36H35C35.5523 36 36 35.5523 36 35V5C36 4.44772 35.5523 4 35 4H5Z" fill="#2B5EAE"/>
<path fill-rule="evenodd" clip-rule="evenodd" d="M20 29.5C25.2467 29.5 29.5 25.2467 29.5 20C29.5 14.7533 25.2467 10.5 20 10.5C14.7533 10.5 10.5 14.7533 10.5 20C10.5 25.2467 14.7533 29.5 20 29.5ZM20 31C26.0751 31 31 26.0751 31 20C31 13.9249 26.0751 9 20 9C13.9249 9 9 13.9249 9 20C9 26.0751 13.9249 31 20 31Z" fill="#2B5EAE"/>
<circle cx="15" cy="20" r="1.3" stroke="#2B5EAE" stroke-width="1.4"/>
<circle cx="25" cy="20" r="1.3" stroke="#2B5EAE" stroke-width="1.4"/>
<path d="M19.25 12C19.25 12.4142 19.5858 12.75 20 12.75C20.4142 12.75 20.75 12.4142 20.75 12L19.25 12ZM19.25 10L19.25 12L20.75 12L20.75 10L19.25 10Z" fill="#2B5EAE"/>
<path d="M20.75 28C20.75 27.5858 20.4142 27.25 20 27.25C19.5858 27.25 19.25 27.5858 19.25 28H20.75ZM20.75 30V28H19.25V30H20.75Z" fill="#2B5EAE"/>
</g>
<defs>
<filter id="filter0_d_45_1269" x="1" y="2" width="38" height="38" filterUnits="userSpaceOnUse" color-interpolation-filters="sRGB">
<feFlood flood-opacity="0" result="BackgroundImageFix"/>
<feColorMatrix in="SourceAlpha" type="matrix" values="0 0 0 0 0 0 0 0 0 0 0 0 0 0 0 0 0 0 127 0" result="hardAlpha"/>
<feOffset dy="1"/>
<feGaussianBlur stdDeviation="1.5"/>
<feComposite in2="hardAlpha" operator="out"/>
<feColorMatrix type="matrix" values="0 0 0 0 0.0705903 0 0 0 0 0.16166 0 0 0 0 0.395833 0 0 0 0.25 0"/>
<feBlend mode="normal" in2="BackgroundImageFix" result="effect1_dropShadow_45_1269"/>
<feBlend mode="normal" in="SourceGraphic" in2="effect1_dropShadow_45_1269" result="shape"/>
</filter>
</defs>
</svg>
