<svg width="40" height="40" viewBox="0 0 40 40" fill="none" xmlns="http://www.w3.org/2000/svg">
<g filter="url(#filter0_d_298_1151)">
<g filter="url(#filter1_d_298_1151)">
<path fill-rule="evenodd" clip-rule="evenodd" d="M28.5 25.1983V9C28.5 7.61929 27.3807 6.5 26 6.5C24.6193 6.5 23.5 7.61929 23.5 9V25.1983L23.0004 25.6455C22.0774 26.4716 21.5 27.6674 21.5 29C21.5 31.4853 23.5147 33.5 26 33.5C28.4853 33.5 30.5 31.4853 30.5 29C30.5 27.6674 29.9226 26.4716 28.9996 25.6455L28.5 25.1983ZM22 24.5278C20.7725 25.6264 20 27.223 20 29C20 32.3137 22.6863 35 26 35C29.3137 35 32 32.3137 32 29C32 27.223 31.2275 25.6264 30 24.5278V9C30 6.79086 28.2091 5 26 5C23.7909 5 22 6.79086 22 9V24.5278Z" fill="#2B5EAE"/>
<circle cx="26" cy="29" r="2.5" fill="#2B5EAE"/>
<path d="M26 28V14" stroke="#2B5EAE" stroke-width="1.5" stroke-linecap="round"/>
<path d="M34 10C34.4142 10 34.75 9.66421 34.75 9.25C34.75 8.83579 34.4142 8.5 34 8.5V10ZM29 10H34V8.5H29V10Z" fill="#2B5EAE"/>
<path d="M32.5 15.75C32.9142 15.75 33.25 15.4142 33.25 15C33.25 14.5858 32.9142 14.25 32.5 14.25V15.75ZM29 15.75H32.5V14.25H29V15.75Z" fill="#2B5EAE"/>
<path d="M31 21.75C31.4142 21.75 31.75 21.4142 31.75 21C31.75 20.5858 31.4142 20.25 31 20.25V21.75ZM29 21.75H31V20.25H29V21.75Z" fill="#2B5EAE"/>
</g>
<path fill-rule="evenodd" clip-rule="evenodd" d="M8.35032 13.7049C7.99701 14.6995 7.83325 15.4792 7.83325 16C7.83325 18.4853 9.84797 20.5 12.3333 20.5C14.8185 20.5 16.8333 18.4853 16.8333 16C16.8333 15.4792 16.6695 14.6995 16.3162 13.7049C15.9718 12.7355 15.4843 11.663 14.9256 10.5918C14.0879 8.98602 13.1302 7.45915 12.3333 6.36159C11.5363 7.45915 10.5786 8.98602 9.74093 10.5918C9.18217 11.663 8.69469 12.7355 8.35032 13.7049ZM11.9508 4.41641C10.0014 6.6862 6.33325 12.9032 6.33325 16C6.33325 19.3137 9.01954 22 12.3333 22C15.647 22 18.3333 19.3137 18.3333 16C18.3333 12.9032 14.6651 6.6862 12.7157 4.41641C12.5118 4.179 12.1547 4.179 11.9508 4.41641Z" fill="#2B5EAE"/>
</g>
<defs>
<filter id="filter0_d_298_1151" x="3.33325" y="2.23834" width="34.4167" height="36.7617" filterUnits="userSpaceOnUse" color-interpolation-filters="sRGB">
<feFlood flood-opacity="0" result="BackgroundImageFix"/>
<feColorMatrix in="SourceAlpha" type="matrix" values="0 0 0 0 0 0 0 0 0 0 0 0 0 0 0 0 0 0 127 0" result="hardAlpha"/>
<feOffset dy="1"/>
<feGaussianBlur stdDeviation="1.5"/>
<feComposite in2="hardAlpha" operator="out"/>
<feColorMatrix type="matrix" values="0 0 0 0 0.0705903 0 0 0 0 0.16166 0 0 0 0 0.395833 0 0 0 0.25 0"/>
<feBlend mode="normal" in2="BackgroundImageFix" result="effect1_dropShadow_298_1151"/>
<feBlend mode="normal" in="SourceGraphic" in2="effect1_dropShadow_298_1151" result="shape"/>
</filter>
<filter id="filter1_d_298_1151" x="17" y="3" width="20.75" height="36" filterUnits="userSpaceOnUse" color-interpolation-filters="sRGB">
<feFlood flood-opacity="0" result="BackgroundImageFix"/>
<feColorMatrix in="SourceAlpha" type="matrix" values="0 0 0 0 0 0 0 0 0 0 0 0 0 0 0 0 0 0 127 0" result="hardAlpha"/>
<feOffset dy="1"/>
<feGaussianBlur stdDeviation="1.5"/>
<feComposite in2="hardAlpha" operator="out"/>
<feColorMatrix type="matrix" values="0 0 0 0 0.0705903 0 0 0 0 0.16166 0 0 0 0 0.395833 0 0 0 0.25 0"/>
<feBlend mode="normal" in2="BackgroundImageFix" result="effect1_dropShadow_298_1151"/>
<feBlend mode="normal" in="SourceGraphic" in2="effect1_dropShadow_298_1151" result="shape"/>
</filter>
</defs>
</svg>
