<svg width="40" height="40" viewBox="0 0 40 40" fill="none" xmlns="http://www.w3.org/2000/svg">
<g filter="url(#filter0_d_253_939)">
<path fill-rule="evenodd" clip-rule="evenodd" d="M20 34.5C28.0081 34.5 34.5 28.0081 34.5 20C34.5 11.9919 28.0081 5.5 20 5.5C11.9919 5.5 5.5 11.9919 5.5 20C5.5 28.0081 11.9919 34.5 20 34.5ZM20 36C28.8366 36 36 28.8366 36 20C36 11.1634 28.8366 4 20 4C11.1634 4 4 11.1634 4 20C4 28.8366 11.1634 36 20 36Z" fill="#2B5EAE"/>
<circle cx="20" cy="20" r="1.25" stroke="#2B5EAE" stroke-width="1.5"/>
<path fill-rule="evenodd" clip-rule="evenodd" d="M28.7519 15.4319C28.9904 15.2928 29.071 14.9866 28.9318 14.7481C28.7927 14.5096 28.4865 14.429 28.248 14.5681L21.3943 18.5662C21.6339 18.7993 21.8154 19.092 21.9147 19.4203L28.7519 15.4319ZM18.5533 21.3811C18.3229 21.1398 18.1522 20.8409 18.0651 20.5082L16.248 21.5681C16.0095 21.7073 15.9289 22.0134 16.0681 22.252C16.2072 22.4905 16.5134 22.571 16.7519 22.4319L18.5533 21.3811Z" fill="#2B5EAE"/>
<path d="M20 7V9" stroke="#2B5EAE" stroke-width="1.5" stroke-linecap="round"/>
<path d="M7 20H9" stroke="#2B5EAE" stroke-width="1.5" stroke-linecap="round"/>
<path d="M10.4473 10.9335L11.8615 12.3477" stroke="#2B5EAE" stroke-width="1.5" stroke-linecap="round"/>
<path d="M14.8304 8.01142L15.6278 9.84559" stroke="#2B5EAE" stroke-width="1.5" stroke-linecap="round"/>
<path d="M25.1654 8.01142L24.368 9.84559" stroke="#2B5EAE" stroke-width="1.5" stroke-linecap="round"/>
<path d="M32.55 15.4999L30.6767 16.2004" stroke="#2B5EAE" stroke-width="1.5" stroke-linecap="round"/>
<path d="M32.5 24.5001L30.6267 23.7996" stroke="#2B5EAE" stroke-width="1.5" stroke-linecap="round"/>
<path d="M7.62662 24.5001L9.49993 23.7996" stroke="#2B5EAE" stroke-width="1.5" stroke-linecap="round"/>
<path d="M7.41287 15.4999L9.28619 16.2004" stroke="#2B5EAE" stroke-width="1.5" stroke-linecap="round"/>
<path d="M29.5527 10.9335L28.1385 12.3477" stroke="#2B5EAE" stroke-width="1.5" stroke-linecap="round"/>
<path d="M31 20H33" stroke="#2B5EAE" stroke-width="1.5" stroke-linecap="round"/>
</g>
<defs>
<filter id="filter0_d_253_939" x="1" y="2" width="38" height="38" filterUnits="userSpaceOnUse" color-interpolation-filters="sRGB">
<feFlood flood-opacity="0" result="BackgroundImageFix"/>
<feColorMatrix in="SourceAlpha" type="matrix" values="0 0 0 0 0 0 0 0 0 0 0 0 0 0 0 0 0 0 127 0" result="hardAlpha"/>
<feOffset dy="1"/>
<feGaussianBlur stdDeviation="1.5"/>
<feComposite in2="hardAlpha" operator="out"/>
<feColorMatrix type="matrix" values="0 0 0 0 0.0705903 0 0 0 0 0.16166 0 0 0 0 0.395833 0 0 0 0.25 0"/>
<feBlend mode="normal" in2="BackgroundImageFix" result="effect1_dropShadow_253_939"/>
<feBlend mode="normal" in="SourceGraphic" in2="effect1_dropShadow_253_939" result="shape"/>
</filter>
</defs>
</svg>
