<svg width="40" height="40" viewBox="0 0 40 40" fill="none" xmlns="http://www.w3.org/2000/svg">
<g clip-path="url(#clip0_253_718)">
<g filter="url(#filter0_d_253_718)">
<path d="M24.0858 7.7142L25.5 6.29999" stroke="#2B5EAE" stroke-width="1.5" stroke-linecap="round"/>
<path d="M13 12.3H11" stroke="#2B5EAE" stroke-width="1.5" stroke-linecap="round"/>
<path d="M26 12.3H28" stroke="#2B5EAE" stroke-width="1.5" stroke-linecap="round"/>
<path d="M19.5 6V4" stroke="#2B5EAE" stroke-width="1.5" stroke-linecap="round"/>
<path d="M14.9142 7.7142L13.5 6.29999" stroke="#2B5EAE" stroke-width="1.5" stroke-linecap="round"/>
<path d="M24.0858 16.3L25.5 17.7142" stroke="#2B5EAE" stroke-width="1.5" stroke-linecap="round"/>
<path d="M14.9142 16.3L13.5 17.7142" stroke="#2B5EAE" stroke-width="1.5" stroke-linecap="round"/>
<path d="M19.5 20.8V18.8" stroke="#2B5EAE" stroke-width="1.5" stroke-linecap="round"/>
<path fill-rule="evenodd" clip-rule="evenodd" d="M19.5 16C21.433 16 23 14.433 23 12.5C23 10.567 21.433 9 19.5 9C17.567 9 16 10.567 16 12.5C16 14.433 17.567 16 19.5 16ZM19.5 17.5C22.2614 17.5 24.5 15.2614 24.5 12.5C24.5 9.73858 22.2614 7.5 19.5 7.5C16.7386 7.5 14.5 9.73858 14.5 12.5C14.5 15.2614 16.7386 17.5 19.5 17.5Z" fill="#2B5EAE"/>
<path fill-rule="evenodd" clip-rule="evenodd" d="M9.5 35.5L29.5 35.5V33.5L9.5 33.5V35.5ZM31 37V33.1667C31 32.5223 30.4777 32 29.8333 32L9.16667 32C8.52234 32 8 32.5223 8 33.1667V37L31 37Z" fill="#2B5EAE"/>
<path fill-rule="evenodd" clip-rule="evenodd" d="M25.4794 32C25.2253 28.9202 22.6453 26.5 19.5 26.5C16.3546 26.5 13.7746 28.9202 13.5205 32H12.0164C12.2737 28.091 15.5258 25 19.5 25C23.4741 25 26.7263 28.091 26.9836 32H25.4794Z" fill="#2B5EAE"/>
<path d="M21 28C21 28 21.5 28 22.5 29C23.5 30 23.5 30.5 23.5 30.5" stroke="#2B5EAE" stroke-linecap="round"/>
</g>
</g>
<defs>
<filter id="filter0_d_253_718" x="5" y="1.25" width="29" height="39.75" filterUnits="userSpaceOnUse" color-interpolation-filters="sRGB">
<feFlood flood-opacity="0" result="BackgroundImageFix"/>
<feColorMatrix in="SourceAlpha" type="matrix" values="0 0 0 0 0 0 0 0 0 0 0 0 0 0 0 0 0 0 127 0" result="hardAlpha"/>
<feOffset dy="1"/>
<feGaussianBlur stdDeviation="1.5"/>
<feComposite in2="hardAlpha" operator="out"/>
<feColorMatrix type="matrix" values="0 0 0 0 0.0705903 0 0 0 0 0.16166 0 0 0 0 0.395833 0 0 0 0.25 0"/>
<feBlend mode="normal" in2="BackgroundImageFix" result="effect1_dropShadow_253_718"/>
<feBlend mode="normal" in="SourceGraphic" in2="effect1_dropShadow_253_718" result="shape"/>
</filter>
<clipPath id="clip0_253_718">
<rect width="40" height="40" fill="white"/>
</clipPath>
</defs>
</svg>
