<svg width="40" height="40" viewBox="0 0 40 40" fill="none" xmlns="http://www.w3.org/2000/svg">
<g clip-path="url(#clip0_262_1418)">
<g filter="url(#filter0_d_262_1418)">
<path fill-rule="evenodd" clip-rule="evenodd" d="M20 35.5C28.5604 35.5 35.5 28.5604 35.5 20C35.5 11.4396 28.5604 4.5 20 4.5C11.4396 4.5 4.5 11.4396 4.5 20C4.5 28.5604 11.4396 35.5 20 35.5ZM20 37C29.3888 37 37 29.3888 37 20C37 10.6112 29.3888 3 20 3C10.6112 3 3 10.6112 3 20C3 29.3888 10.6112 37 20 37Z" fill="#2B5EAE"/>
<circle cx="20" cy="19" r="1.25" stroke="#2B5EAE" stroke-width="1.5"/>
<path d="M20 6V8" stroke="#2B5EAE" stroke-width="1.5" stroke-linecap="round"/>
<path d="M7 19H9" stroke="#2B5EAE" stroke-width="1.5" stroke-linecap="round"/>
<path d="M10.4473 9.93347L11.8615 11.3477" stroke="#2B5EAE" stroke-width="1.5" stroke-linecap="round"/>
<path d="M29.5527 9.93347L28.1385 11.3477" stroke="#2B5EAE" stroke-width="1.5" stroke-linecap="round"/>
<path d="M31 19H33" stroke="#2B5EAE" stroke-width="1.5" stroke-linecap="round"/>
<path d="M20 19L24.5 9" stroke="#2B5EAE" stroke-width="1.5" stroke-linecap="round"/>
<path d="M24.9373 21.6232L17.1724 25.8091C16.94 25.9344 16.9393 26.2675 17.1712 26.3937L20.226 28.0565C20.4011 28.1518 20.4535 28.3789 20.3378 28.5413L16.5786 33.817" stroke="#2B5EAE" stroke-width="1.5" stroke-linecap="round"/>
<path d="M24.9372 21.6232L22.0667 26.0866C21.9651 26.2446 22.0144 26.4552 22.1756 26.5517L24.3316 27.8419C24.5386 27.9658 24.5489 28.262 24.351 28.3999L16.5785 33.8169" stroke="#2B5EAE" stroke-width="1.5" stroke-linecap="round"/>
</g>
</g>
<defs>
<filter id="filter0_d_262_1418" x="0" y="1" width="40" height="40" filterUnits="userSpaceOnUse" color-interpolation-filters="sRGB">
<feFlood flood-opacity="0" result="BackgroundImageFix"/>
<feColorMatrix in="SourceAlpha" type="matrix" values="0 0 0 0 0 0 0 0 0 0 0 0 0 0 0 0 0 0 127 0" result="hardAlpha"/>
<feOffset dy="1"/>
<feGaussianBlur stdDeviation="1.5"/>
<feComposite in2="hardAlpha" operator="out"/>
<feColorMatrix type="matrix" values="0 0 0 0 0.0705903 0 0 0 0 0.16166 0 0 0 0 0.395833 0 0 0 0.25 0"/>
<feBlend mode="normal" in2="BackgroundImageFix" result="effect1_dropShadow_262_1418"/>
<feBlend mode="normal" in="SourceGraphic" in2="effect1_dropShadow_262_1418" result="shape"/>
</filter>
<clipPath id="clip0_262_1418">
<rect width="40" height="40" fill="white"/>
</clipPath>
</defs>
</svg>
