<svg width="40" height="40" viewBox="0 0 40 40" fill="none" xmlns="http://www.w3.org/2000/svg">
<g filter="url(#filter0_d_96_515)">
<mask id="path-1-inside-1_96_515" fill="white">
<path fill-rule="evenodd" clip-rule="evenodd" d="M25 5C27.2091 5 29 6.79086 29 9V24.5278C30.2275 25.6264 31 27.223 31 29C31 32.3137 28.3137 35 25 35C21.6863 35 19 32.3137 19 29C19 27.223 19.7725 25.6264 21 24.5278V9C21 6.79086 22.7909 5 25 5Z"/>
</mask>
<path d="M29 24.5278H27.5V25.1983L27.9996 25.6455L29 24.5278ZM21 24.5278L22.0004 25.6455L22.5 25.1983V24.5278H21ZM30.5 9C30.5 5.96243 28.0376 3.5 25 3.5V6.5C26.3807 6.5 27.5 7.61929 27.5 9H30.5ZM30.5 24.5278V9H27.5V24.5278H30.5ZM27.9996 25.6455C28.9226 26.4716 29.5 27.6674 29.5 29H32.5C32.5 26.7786 31.5323 24.7812 30.0004 23.4101L27.9996 25.6455ZM29.5 29C29.5 31.4853 27.4853 33.5 25 33.5V36.5C29.1421 36.5 32.5 33.1421 32.5 29H29.5ZM25 33.5C22.5147 33.5 20.5 31.4853 20.5 29H17.5C17.5 33.1421 20.8579 36.5 25 36.5V33.5ZM20.5 29C20.5 27.6674 21.0774 26.4716 22.0004 25.6455L19.9996 23.4101C18.4677 24.7812 17.5 26.7786 17.5 29H20.5ZM19.5 9V24.5278H22.5V9H19.5ZM25 3.5C21.9624 3.5 19.5 5.96243 19.5 9H22.5C22.5 7.61929 23.6193 6.5 25 6.5V3.5Z" fill="#2B5EAE" mask="url(#path-1-inside-1_96_515)"/>
<circle cx="25" cy="29" r="2.5" fill="#2B5EAE"/>
<path d="M25 28V14" stroke="#2B5EAE" stroke-width="1.5" stroke-linecap="round"/>
<path d="M33 10C33.4142 10 33.75 9.66421 33.75 9.25C33.75 8.83579 33.4142 8.5 33 8.5V10ZM28 10H33V8.5H28V10Z" fill="#2B5EAE"/>
<path d="M31.5 15.75C31.9142 15.75 32.25 15.4142 32.25 15C32.25 14.5858 31.9142 14.25 31.5 14.25V15.75ZM28 15.75H31.5V14.25H28V15.75Z" fill="#2B5EAE"/>
<path d="M30 21.75C30.4142 21.75 30.75 21.4142 30.75 21C30.75 20.5858 30.4142 20.25 30 20.25V21.75ZM28 21.75H30V20.25H28V21.75Z" fill="#2B5EAE"/>
<path d="M14.8182 17.1761C13.9735 17.1761 13.2462 16.9848 12.6364 16.6023C12.0303 16.2159 11.5644 15.6837 11.2386 15.0057C10.9129 14.3277 10.75 13.5511 10.75 12.6761C10.75 11.7898 10.9167 11.0076 11.25 10.3295C11.5833 9.64773 12.053 9.11553 12.6591 8.73295C13.2652 8.35038 13.9792 8.15909 14.8011 8.15909C15.464 8.15909 16.0549 8.2822 16.5739 8.52841C17.0928 8.77083 17.5114 9.11174 17.8295 9.55114C18.1515 9.99053 18.3428 10.5038 18.4034 11.0909H16.75C16.6591 10.6818 16.4508 10.3295 16.125 10.0341C15.803 9.73864 15.3712 9.59091 14.8295 9.59091C14.3561 9.59091 13.9413 9.71591 13.5852 9.96591C13.233 10.2121 12.9583 10.5644 12.7614 11.0227C12.5644 11.4773 12.4659 12.0152 12.4659 12.6364C12.4659 13.2727 12.5625 13.822 12.7557 14.2841C12.9489 14.7462 13.2216 15.1042 13.5739 15.358C13.9299 15.6117 14.3485 15.7386 14.8295 15.7386C15.1515 15.7386 15.4432 15.6799 15.7045 15.5625C15.9697 15.4413 16.1913 15.2689 16.3693 15.0455C16.5511 14.822 16.678 14.553 16.75 14.2386H18.4034C18.3428 14.803 18.1591 15.3068 17.8523 15.75C17.5455 16.1932 17.1345 16.5417 16.6193 16.7955C16.108 17.0492 15.5076 17.1761 14.8182 17.1761Z" fill="#2B5EAE"/>
<circle cx="8.5" cy="7.5" r="1.75" stroke="#2B5EAE" stroke-width="1.5"/>
</g>
<defs>
<filter id="filter0_d_96_515" x="3" y="3" width="33.75" height="36" filterUnits="userSpaceOnUse" color-interpolation-filters="sRGB">
<feFlood flood-opacity="0" result="BackgroundImageFix"/>
<feColorMatrix in="SourceAlpha" type="matrix" values="0 0 0 0 0 0 0 0 0 0 0 0 0 0 0 0 0 0 127 0" result="hardAlpha"/>
<feOffset dy="1"/>
<feGaussianBlur stdDeviation="1.5"/>
<feComposite in2="hardAlpha" operator="out"/>
<feColorMatrix type="matrix" values="0 0 0 0 0.0705903 0 0 0 0 0.16166 0 0 0 0 0.395833 0 0 0 0.25 0"/>
<feBlend mode="normal" in2="BackgroundImageFix" result="effect1_dropShadow_96_515"/>
<feBlend mode="normal" in="SourceGraphic" in2="effect1_dropShadow_96_515" result="shape"/>
</filter>
</defs>
</svg>
