<svg width="40" height="40" viewBox="0 0 40 40" fill="none" xmlns="http://www.w3.org/2000/svg">
<path d="M20 4V36" stroke="#2B5EAE" stroke-width="1.5" stroke-linecap="round"/>
<path d="M6.14355 28L33.8564 12" stroke="#2B5EAE" stroke-width="1.5" stroke-linecap="round"/>
<path d="M20 9.5L24.5 5.5" stroke="#2B5EAE" stroke-width="1.5" stroke-linecap="round"/>
<path d="M15.5 5.5L20 9.5" stroke="#2B5EAE" stroke-width="1.5" stroke-linecap="round"/>
<path d="M20 30.5L15.5 34.5" stroke="#2B5EAE" stroke-width="1.5" stroke-linecap="round"/>
<path d="M24.5 34.5L20 30.5" stroke="#2B5EAE" stroke-width="1.5" stroke-linecap="round"/>
<path d="M6.14355 12L33.8564 28" stroke="#2B5EAE" stroke-width="1.5" stroke-linecap="round"/>
<path d="M10.9067 14.75L9.69263 8.85289" stroke="#2B5EAE" stroke-width="1.5" stroke-linecap="round"/>
<path d="M5.19264 16.6471L10.9067 14.75" stroke="#2B5EAE" stroke-width="1.5" stroke-linecap="round"/>
<path d="M29.0933 25.25L30.3074 31.1471" stroke="#2B5EAE" stroke-width="1.5" stroke-linecap="round"/>
<path d="M34.8074 23.3529L29.0933 25.25" stroke="#2B5EAE" stroke-width="1.5" stroke-linecap="round"/>
<path d="M33.8564 12L6.14363 28" stroke="#2B5EAE" stroke-width="1.5" stroke-linecap="round"/>
<path d="M29.0933 14.75L34.8074 16.6471" stroke="#2B5EAE" stroke-width="1.5" stroke-linecap="round"/>
<path d="M30.3074 8.85291L29.0933 14.75" stroke="#2B5EAE" stroke-width="1.5" stroke-linecap="round"/>
<path d="M10.9067 25.25L5.19263 23.3529" stroke="#2B5EAE" stroke-width="1.5" stroke-linecap="round"/>
<path d="M9.69264 31.1471L10.9067 25.25" stroke="#2B5EAE" stroke-width="1.5" stroke-linecap="round"/>
</svg>
