<svg width="40" height="40" viewBox="0 0 40 40" fill="none" xmlns="http://www.w3.org/2000/svg">
<g clip-path="url(#clip0_255_1033)">
<g filter="url(#filter0_d_255_1033)">
<path d="M19 6.5H34.5C34.7761 6.5 35 6.72386 35 7V34C35 34.2761 34.7761 34.5 34.5 34.5H19" stroke="#2B5EAE" stroke-width="1.5" stroke-linecap="round"/>
<path d="M8.5 6.5H5C4.72386 6.5 4.5 6.72386 4.5 7V34C4.5 34.2761 4.72386 34.5 5 34.5H7.5" stroke="#2B5EAE" stroke-width="1.5" stroke-linecap="round"/>
<path fill-rule="evenodd" clip-rule="evenodd" d="M15.25 6.24569L8.25 9.95157V31.5241L15.25 34.8182V6.24569ZM15.2087 4.5703C15.908 4.20008 16.75 4.70703 16.75 5.49828V35.5273C16.75 36.2969 15.9493 36.8051 15.2529 36.4773L6.75 32.476V9.04845L15.2087 4.5703Z" fill="#2B5EAE"/>
<path fill-rule="evenodd" clip-rule="evenodd" d="M19.75 9.8C19.75 9.2201 20.2201 8.75 20.8 8.75H31.7C32.2799 8.75 32.75 9.2201 32.75 9.8V31.2C32.75 31.7799 32.2799 32.25 31.7 32.25H20.8C20.2201 32.25 19.75 31.7799 19.75 31.2V9.8ZM21.25 10.25V30.75H31.25V10.25H21.25Z" fill="#2B5EAE"/>
<path d="M24 15L26.5 12.5" stroke="#2B5EAE" stroke-linecap="round"/>
<path d="M24.5 18L29.5 13" stroke="#2B5EAE" stroke-linecap="round"/>
</g>
</g>
<defs>
<filter id="filter0_d_255_1033" x="0.75" y="2.44684" width="38" height="38.1317" filterUnits="userSpaceOnUse" color-interpolation-filters="sRGB">
<feFlood flood-opacity="0" result="BackgroundImageFix"/>
<feColorMatrix in="SourceAlpha" type="matrix" values="0 0 0 0 0 0 0 0 0 0 0 0 0 0 0 0 0 0 127 0" result="hardAlpha"/>
<feOffset dy="1"/>
<feGaussianBlur stdDeviation="1.5"/>
<feComposite in2="hardAlpha" operator="out"/>
<feColorMatrix type="matrix" values="0 0 0 0 0.0705903 0 0 0 0 0.16166 0 0 0 0 0.395833 0 0 0 0.25 0"/>
<feBlend mode="normal" in2="BackgroundImageFix" result="effect1_dropShadow_255_1033"/>
<feBlend mode="normal" in="SourceGraphic" in2="effect1_dropShadow_255_1033" result="shape"/>
</filter>
<clipPath id="clip0_255_1033">
<rect width="40" height="40" fill="white"/>
</clipPath>
</defs>
</svg>
