<svg width="40" height="40" viewBox="0 0 40 40" fill="none" xmlns="http://www.w3.org/2000/svg">
<g filter="url(#filter0_d_282_722)">
<path d="M19 6H34.5C34.7761 6 35 6.22386 35 6.5V33.5C35 33.7761 34.7761 34 34.5 34H19" stroke="#2B5EAE" stroke-width="1.5" stroke-linecap="round"/>
<path d="M19 6H5C4.72386 6 4.5 6.22386 4.5 6.5V33.5C4.5 33.7761 4.72386 34 5 34H19" stroke="#2B5EAE" stroke-width="1.5" stroke-linecap="round"/>
<path fill-rule="evenodd" clip-rule="evenodd" d="M20.75 9.3C20.75 8.7201 21.2201 8.25 21.8 8.25H31.7C32.2799 8.25 32.75 8.7201 32.75 9.3V30.7C32.75 31.2799 32.2799 31.75 31.7 31.75H21.8C21.2201 31.75 20.75 31.2799 20.75 30.7V9.3ZM22.25 9.75V30.25H31.25V9.75H22.25Z" fill="#2B5EAE"/>
<path fill-rule="evenodd" clip-rule="evenodd" d="M6.75 9.3C6.75 8.7201 7.2201 8.25 7.8 8.25H17.7C18.2799 8.25 18.75 8.7201 18.75 9.3V30.7C18.75 31.2799 18.2799 31.75 17.7 31.75H7.8C7.2201 31.75 6.75 31.2799 6.75 30.7V9.3ZM8.25 9.75V30.25H17.25V9.75H8.25Z" fill="#2B5EAE"/>
<path d="M24 14.5L26.5 12" stroke="#2B5EAE" stroke-linecap="round"/>
<path d="M24.5 17.5L29.5 12.5" stroke="#2B5EAE" stroke-linecap="round"/>
</g>
<defs>
<filter id="filter0_d_282_722" x="0.75" y="3.25" width="38" height="35.5" filterUnits="userSpaceOnUse" color-interpolation-filters="sRGB">
<feFlood flood-opacity="0" result="BackgroundImageFix"/>
<feColorMatrix in="SourceAlpha" type="matrix" values="0 0 0 0 0 0 0 0 0 0 0 0 0 0 0 0 0 0 127 0" result="hardAlpha"/>
<feOffset dy="1"/>
<feGaussianBlur stdDeviation="1.5"/>
<feComposite in2="hardAlpha" operator="out"/>
<feColorMatrix type="matrix" values="0 0 0 0 0.0705903 0 0 0 0 0.16166 0 0 0 0 0.395833 0 0 0 0.25 0"/>
<feBlend mode="normal" in2="BackgroundImageFix" result="effect1_dropShadow_282_722"/>
<feBlend mode="normal" in="SourceGraphic" in2="effect1_dropShadow_282_722" result="shape"/>
</filter>
</defs>
</svg>
