<svg width="80" height="80" viewBox="0 0 80 80" fill="none" xmlns="http://www.w3.org/2000/svg">
<path d="M62.5 51H72.5C73.0523 51 73.5 51.4477 73.5 52V60M71 60L71.9316 62.7949C71.9725 62.9174 72.0871 63 72.2162 63H73.2C73.3657 63 73.5 62.8657 73.5 62.7V60M71 60H67.5M71 60H73.5" stroke="#2B5EAE" stroke-linecap="round"/>
<path d="M73.5 55.5H66.5" stroke="#2B5EAE" stroke-linecap="round"/>
<path d="M17.5 51H7.5C6.94771 51 6.5 51.4477 6.5 52V60M9 60L8.06838 62.7949C8.02754 62.9174 7.9129 63 7.78377 63H6.8C6.63431 63 6.5 62.8657 6.5 62.7V60M9 60H12.5M9 60H6.5" stroke="#2B5EAE" stroke-linecap="round"/>
<path d="M6.5 55.5H13.5" stroke="#2B5EAE" stroke-linecap="round"/>
<path d="M18 52V41.1739C18 39.9733 18.9733 39 20.1739 39H59.8261C61.0267 39 62 39.9733 62 41.1739V52" stroke="#2B5EAE" stroke-width="1.08696" stroke-linecap="round"/>
<path d="M64.4116 54.0346C64.4284 54.0534 64.4433 54.0708 64.4565 54.0865V58.7703V67.413C64.4565 67.7132 64.2132 67.9565 63.913 67.9565H61.4997C61.2506 67.9565 61.0334 67.7871 60.9726 67.5455L60.2989 64.8652C60.1167 64.1403 59.465 63.6322 58.7177 63.6322H21.2823C20.535 63.6322 19.8833 64.1403 19.7011 64.8652L19.0274 67.5455C18.9666 67.7871 18.7494 67.9565 18.5003 67.9565H16.087C15.7868 67.9565 15.5435 67.7132 15.5435 67.413V58.7703V54.0865C15.5567 54.0708 15.5716 54.0534 15.5884 54.0346C15.6979 53.9117 15.8865 53.7225 16.1848 53.4883C16.7814 53.0198 17.819 52.3694 19.542 51.7103C22.9919 50.3906 29.1702 49.0435 40 49.0435C50.8298 49.0435 57.0081 50.3906 60.458 51.7103C62.181 52.3694 63.2186 53.0198 63.8152 53.4883C64.1135 53.7225 64.3021 53.9117 64.4116 54.0346ZM64.5388 54.1929L64.5381 54.1918C64.5392 54.1934 64.5394 54.1938 64.5388 54.1929Z" stroke="#2B5EAE" stroke-width="1.08696"/>
<path d="M24 50V45.1739C24 43.9733 24.9733 43 26.1739 43H37.8261C39.0267 43 40 43.9733 40 45.1739V48.5" stroke="#2B5EAE" stroke-width="1.08696" stroke-linecap="round"/>
<path d="M56 50V45.1739C56 43.9733 55.0267 43 53.8261 43H42.1739C40.9733 43 40 43.9733 40 45.1739V48" stroke="#2B5EAE" stroke-width="1.08696" stroke-linecap="round"/>
<path d="M66.4924 38.1622C66.5163 38.0669 66.6019 38 66.7002 38H71.2998C71.3981 38 71.4837 38.0669 71.5076 38.1622L73.2925 45.2836C73.3264 45.4189 73.2241 45.55 73.0846 45.55H64.9154C64.7759 45.55 64.6736 45.4189 64.7075 45.2836L66.4924 38.1622Z" stroke="#2B5EAE"/>
<path d="M8.49163 38.1619C8.51563 38.0667 8.60125 38 8.69942 38H13.3006C13.3988 38 13.4844 38.0667 13.5084 38.1619L15.2911 45.2333C15.3252 45.3687 15.2229 45.5 15.0833 45.5H6.91671C6.77712 45.5 6.6748 45.3687 6.70892 45.2333L8.49163 38.1619Z" stroke="#2B5EAE"/>
<path d="M69 46V51" stroke="#2B5EAE"/>
<path d="M11 46V51" stroke="#2B5EAE"/>
<rect x="24.5" y="12.5" width="30.5" height="18" rx="0.642857" stroke="#2B5EAE"/>
<rect x="27.5" y="15.5" width="24.5" height="12" rx="0.642857" stroke="#2B5EAE"/>
</svg>
