<svg width="80" height="80" viewBox="0 0 80 80" fill="none" xmlns="http://www.w3.org/2000/svg">
<path d="M58 58.7V22.3C58 22.1343 58.1343 22 58.3 22H59.7C59.8657 22 60 22.1343 60 22.3V58.7C60 58.8657 59.8657 59 59.7 59H58.3C58.1343 59 58 58.8657 58 58.7Z" stroke="#2B5EAE" stroke-linecap="round"/>
<path d="M56 61.7V59.3C56 59.1343 56.1343 59 56.3 59H61.7C61.8657 59 62 59.1343 62 59.3V61.7C62 61.8657 61.8657 62 61.7 62H56.3C56.1343 62 56 61.8657 56 61.7Z" stroke="#2B5EAE" stroke-linecap="round"/>
<path d="M59 62V67" stroke="#2B5EAE" stroke-linecap="round"/>
<path d="M56.5 62C56.5 62 56.5 63.25 55.5 65C54.5 66.75 53.5 67 53.5 67" stroke="#2B5EAE" stroke-linecap="round"/>
<path d="M61.5 62C61.5 62 61.5 63.25 62.5 65C63.5 66.75 64.5 67 64.5 67" stroke="#2B5EAE" stroke-linecap="round"/>
<path d="M64.5 20C64.5 20 64.5 22 63 23.5C61.5 25 60.5 25 60.5 25" stroke="#2B5EAE" stroke-linecap="round"/>
<path d="M60.0795 26.5791C60.0795 26.5791 60.3687 28.5581 62.0698 29.8254C63.771 31.0927 65.5795 29.8253 65.5795 29.8253" stroke="#2B5EAE" stroke-linecap="round"/>
<path d="M57.8704 26.6258C57.8704 26.6258 57.5812 28.6048 55.7824 29.8578C53.9836 31.1109 52.0466 29.8247 52.0466 29.8247" stroke="#2B5EAE" stroke-linecap="round"/>
<path d="M53.5 20C53.5 20 53.5 22 55 23.5C56.5 25 57.5 25 57.5 25" stroke="#2B5EAE" stroke-linecap="round"/>
<path d="M20.5 64H36.5" stroke="#2B5EAE" stroke-linecap="round"/>
<path d="M20.5 52.5H36.5" stroke="#2B5EAE" stroke-linecap="round"/>
<path d="M36.7 42H20.8C20.6343 42 20.5 42.1343 20.5 42.3V67.2C20.5 67.3657 20.6343 67.5 20.8 67.5H21.8757C21.9553 67.5 22.0316 67.4684 22.0879 67.4121L22.9121 66.5879C22.9684 66.5316 23.0447 66.5 23.1243 66.5H34.3757C34.4553 66.5 34.5316 66.5316 34.5879 66.5879L35.4121 67.4121C35.4684 67.4684 35.5447 67.5 35.6243 67.5H36.7C36.8657 67.5 37 67.3657 37 67.2V42.3C37 42.1343 36.8657 42 36.7 42Z" stroke="#2B5EAE" stroke-linecap="round"/>
<path d="M38.2 39.5H19.3C19.1343 39.5 19 39.6343 19 39.8V41.7C19 41.8657 19.1343 42 19.3 42H38.2C38.3657 42 38.5 41.8657 38.5 41.7V39.8C38.5 39.6343 38.3657 39.5 38.2 39.5Z" stroke="#2B5EAE" stroke-linecap="round"/>
<path d="M26.5 42.5V43.7C26.5 43.8657 26.6343 44 26.8 44H30.7C30.8657 44 31 43.8657 31 43.7V42.5" stroke="#2B5EAE" stroke-linecap="round"/>
<path d="M26.5 53V54.2C26.5 54.3657 26.6343 54.5 26.8 54.5H30.7C30.8657 54.5 31 54.3657 31 54.2V53" stroke="#2B5EAE" stroke-linecap="round"/>
<path d="M14.5 14C14.5 13.7239 14.7239 13.5 15 13.5H42.5C42.7762 13.5 43 13.7239 43 14V31C43 31.2761 42.7762 31.5 42.5 31.5H15C14.7239 31.5 14.5 31.2761 14.5 31V14Z" stroke="#2B5EAE"/>
<path d="M17 16.5C17 16.2239 17.2239 16 17.5 16H40C40.2762 16 40.5 16.2239 40.5 16.5V28.5C40.5 28.7761 40.2762 29 40 29H17.5C17.2239 29 17 28.7761 17 28.5V16.5Z" stroke="#2B5EAE"/>
<path d="M36.5 18.5L33.5 21.5" stroke="#2B5EAE" stroke-linecap="round"/>
<path d="M38 20L34 24" stroke="#2B5EAE" stroke-linecap="round"/>
</svg>
