<svg width="80" height="80" viewBox="0 0 80 80" fill="none" xmlns="http://www.w3.org/2000/svg">
<path d="M11.5 49C11.5 48.7239 11.7239 48.5 12 48.5H15C15.2761 48.5 15.5 48.7239 15.5 49V57.5C15.5 58.0523 15.9477 58.5 16.5 58.5H40H63.5C64.0523 58.5 64.5 58.0523 64.5 57.5V49C64.5 48.7239 64.7239 48.5 65 48.5H68C68.2761 48.5 68.5 48.7239 68.5 49V61C68.5 61.2761 68.2761 61.5 68 61.5H12C11.7239 61.5 11.5 61.2761 11.5 61V49Z" stroke="#2B5EAE"/>
<path d="M15.5 46C15.5 44.6193 16.6193 43.5 18 43.5H37.5C38.8807 43.5 40 44.6193 40 46V58C40 58.2761 39.7761 58.5 39.5 58.5H16C15.7239 58.5 15.5 58.2761 15.5 58V46Z" stroke="#2B5EAE"/>
<path d="M15.5 55C15.5 54.1716 16.1716 53.5 17 53.5H38.5C39.3284 53.5 40 54.1716 40 55V58C40 58.2761 39.7761 58.5 39.5 58.5H16C15.7239 58.5 15.5 58.2761 15.5 58V55Z" stroke="#2B5EAE"/>
<path d="M40 55C40 54.1716 40.6716 53.5 41.5 53.5H63C63.8284 53.5 64.5 54.1716 64.5 55V58C64.5 58.2761 64.2761 58.5 64 58.5H40.5C40.2239 58.5 40 58.2761 40 58V55Z" stroke="#2B5EAE"/>
<path d="M40 46C40 44.6193 41.1193 43.5 42.5 43.5H62C63.3807 43.5 64.5 44.6193 64.5 46V58C64.5 58.2761 64.2761 58.5 64 58.5H40.5C40.2239 58.5 40 58.2761 40 58V46Z" stroke="#2B5EAE"/>
<path d="M19.7025 46.6995C19.7008 46.6922 19.7004 46.6754 19.7188 46.6552C19.7273 46.646 19.7358 46.641 19.7413 46.6389C19.7455 46.6373 19.7483 46.6371 19.7522 46.6377C20.7045 46.7872 22.3481 47 24 47C25.6519 47 27.2955 46.7872 28.2478 46.6377C28.2517 46.6371 28.2545 46.6373 28.2587 46.6389C28.2642 46.641 28.2727 46.646 28.2812 46.6552C28.2996 46.6754 28.2992 46.6922 28.2975 46.6995C28.1129 47.4834 27.875 48.7353 27.875 50C27.875 51.2647 28.1129 52.5166 28.2975 53.3005C28.2992 53.3078 28.2996 53.3246 28.2812 53.3448C28.2727 53.354 28.2642 53.359 28.2587 53.3611C28.2545 53.3627 28.2517 53.3629 28.2478 53.3623C27.2955 53.2128 25.6519 53 24 53C22.3481 53 20.7045 53.2128 19.7522 53.3623C19.7483 53.3629 19.7455 53.3627 19.7413 53.3611C19.7358 53.359 19.7273 53.354 19.7188 53.3448C19.7004 53.3246 19.7008 53.3078 19.7025 53.3005C19.8871 52.5166 20.125 51.2647 20.125 50C20.125 48.7353 19.8871 47.4834 19.7025 46.6995Z" stroke="#2B5EAE"/>
<path d="M51.7025 46.6995C51.7008 46.6922 51.7004 46.6754 51.7188 46.6552C51.7273 46.646 51.7358 46.641 51.7413 46.6389C51.7455 46.6373 51.7483 46.6371 51.7522 46.6377C52.7045 46.7872 54.3481 47 56 47C57.6519 47 59.2955 46.7872 60.2478 46.6377C60.2517 46.6371 60.2545 46.6373 60.2587 46.6389C60.2642 46.641 60.2727 46.646 60.2812 46.6552C60.2996 46.6754 60.2992 46.6922 60.2975 46.6995C60.1129 47.4834 59.875 48.7353 59.875 50C59.875 51.2647 60.1129 52.5166 60.2975 53.3005C60.2992 53.3078 60.2996 53.3246 60.2812 53.3448C60.2727 53.354 60.2642 53.359 60.2587 53.3611C60.2545 53.3627 60.2517 53.3629 60.2478 53.3623C59.2955 53.2128 57.6519 53 56 53C54.3481 53 52.7045 53.2128 51.7522 53.3623C51.7483 53.3629 51.7455 53.3627 51.7413 53.3611C51.7358 53.359 51.7273 53.354 51.7188 53.3448C51.7004 53.3246 51.7008 53.3078 51.7025 53.3005C51.8871 52.5166 52.125 51.2647 52.125 50C52.125 48.7353 51.8871 47.4834 51.7025 46.6995Z" stroke="#2B5EAE"/>
<rect x="17.5" y="61.5" width="2" height="4" rx="0.5" stroke="#2B5EAE"/>
<rect x="64.5" y="61.5" width="2" height="4" rx="0.5" stroke="#2B5EAE"/>
<path d="M22.5 35.5V43.5" stroke="#2B5EAE" stroke-linecap="round"/>
<path d="M19.8991 23.5L25.1009 23.5L27.3736 33.5L17.6264 33.5L19.8991 23.5Z" stroke="#2B5EAE"/>
<path d="M24.5 34C24.5 34.7301 23.7145 35.5 22.5 35.5C21.2855 35.5 20.5 34.7301 20.5 34C20.5 33.8107 20.546 33.7378 20.5738 33.7058C20.608 33.6665 20.6815 33.6134 20.8523 33.5711C21.0245 33.5285 21.2501 33.5079 21.5394 33.5007C21.7337 33.4959 21.9362 33.4971 22.1563 33.4985C22.2661 33.4992 22.3803 33.4999 22.5 33.4999C22.6197 33.4999 22.7339 33.4992 22.8437 33.4985C23.0638 33.4971 23.2663 33.4959 23.4606 33.5007C23.7499 33.5079 23.9755 33.5285 24.1477 33.5711C24.3185 33.6134 24.392 33.6665 24.4262 33.7058C24.454 33.7378 24.5 33.8107 24.5 34Z" stroke="#2B5EAE"/>
<rect x="34.5" y="15.5" width="15" height="12" rx="0.5" stroke="#2B5EAE"/>
<rect x="36.5" y="17.5" width="11" height="8" rx="0.5" stroke="#2B5EAE"/>
<rect x="54.5" y="27.5" width="13" height="10" rx="0.5" stroke="#2B5EAE"/>
<rect x="56.5" y="29.5" width="9" height="6" rx="0.5" stroke="#2B5EAE"/>
</svg>
