<svg width="80" height="80" viewBox="0 0 80 80" fill="none" xmlns="http://www.w3.org/2000/svg">
<path d="M20 45.5L19 49.5" stroke="#2B5EAE" stroke-linecap="round"/>
<path d="M24 45.5L25 49.5" stroke="#2B5EAE" stroke-linecap="round"/>
<path d="M11 42.5H28.5" stroke="#2B5EAE" stroke-linecap="round"/>
<rect x="14" y="52.5" width="3" height="17" rx="0.5" stroke="#2B5EAE"/>
<rect x="64" y="52.5" width="3" height="17" rx="0.5" stroke="#2B5EAE"/>
<path d="M30.4465 40.3291C30.2475 38.8308 31.4133 37.5 32.9248 37.5H43.0752C44.5867 37.5 45.7525 38.8308 45.5535 40.3291L44.2253 50.3291C44.0603 51.5717 43.0006 52.5 41.7471 52.5H34.2529C32.9994 52.5 31.9397 51.5717 31.7747 50.3291L30.4465 40.3291Z" stroke="#2B5EAE"/>
<path d="M34.2771 43.1861C34.1652 42.2908 34.8633 41.5 35.7656 41.5H40.2344C41.1367 41.5 41.8348 42.2908 41.7229 43.1861L41.0979 48.1861C41.004 48.9367 40.3659 49.5 39.6094 49.5H36.3906C35.6341 49.5 34.996 48.9367 34.9021 48.1861L34.2771 43.1861Z" stroke="#2B5EAE"/>
<path d="M30 55.7208C30 55.5033 30.1356 55.3381 30.3138 55.2943C31.4597 55.0127 34.0837 54.5 38 54.5C41.9163 54.5 44.5403 55.0127 45.6862 55.2943C45.8644 55.3381 46 55.5033 46 55.7208V57C46 57.2761 45.7761 57.5 45.5 57.5H30.5C30.2239 57.5 30 57.2761 30 57V55.7208Z" stroke="#2B5EAE"/>
<rect x="37" y="52.5" width="2" height="2" stroke="#2B5EAE"/>
<path d="M33 57.5L43 57.5L40.4667 59.4C40.3801 59.4649 40.2749 59.5 40.1667 59.5H35.8333C35.7251 59.5 35.6199 59.4649 35.5333 59.4L33 57.5Z" stroke="#2B5EAE"/>
<path d="M36.6708 64.7764C36.5046 65.1088 36.7463 65.5 37.118 65.5H38.882C39.2537 65.5 39.4954 65.1088 39.3292 64.7764L38.8292 63.7764C38.7445 63.607 38.5714 63.5 38.382 63.5H37.618C37.4286 63.5 37.2555 63.607 37.1708 63.7764L36.6708 64.7764Z" stroke="#2B5EAE"/>
<path d="M38 59V63" stroke="#2B5EAE"/>
<path d="M39.5 65L45 68" stroke="#2B5EAE"/>
<path d="M38 67.2615L38.0001 65.2615" stroke="#2B5EAE"/>
<path d="M45.5 56C45.5 56 47.3 55.4444 47.9 54.3333C48.5 53.2222 48.5 50 48.5 50" stroke="#2B5EAE"/>
<rect x="46.75" y="49.25" width="4.5" height="0.5" rx="0.25" stroke="#2B5EAE" stroke-width="0.5"/>
<path d="M30.5 56C30.5 56 28.7 55.4444 28.1 54.3333C27.5 53.2222 27.5 50 27.5 50" stroke="#2B5EAE"/>
<rect x="-0.25" y="0.25" width="4.5" height="0.5" rx="0.25" transform="matrix(-1 0 0 1 29 49)" stroke="#2B5EAE" stroke-width="0.5"/>
<circle cx="46" cy="68.5" r="1" stroke="#2B5EAE"/>
<circle cx="38" cy="68.5" r="1" stroke="#2B5EAE"/>
<path d="M36.4065 65L30.9065 68" stroke="#2B5EAE"/>
<circle cx="1.5" cy="1.5" r="1" transform="matrix(-1 0 0 1 31.4065 67)" stroke="#2B5EAE"/>
<path d="M23 49.5H11C10.4477 49.5 10 49.9477 10 50.5V51.5C10 52.0523 10.4477 52.5 11 52.5H25.5" stroke="#2B5EAE" stroke-linecap="round"/>
<path d="M53 49.5H69.5C70.0523 49.5 70.5 49.9477 70.5 50.5V51.5C70.5 52.0523 70.0523 52.5 69.5 52.5H51" stroke="#2B5EAE" stroke-linecap="round"/>
<path d="M35.5 36V30.5C35.5 29.9477 35.0523 29.5 34.5 29.5H12C11.4477 29.5 11 29.9477 11 30.5V44.5C11 45.0523 11.4477 45.5 12 45.5H29.5" stroke="#2B5EAE" stroke-linecap="round"/>
<path d="M61 47.3431C61 47.2261 61.0379 47.152 61.0792 47.1127C61.4697 46.7406 62.4411 46 64 46C65.5589 46 66.5303 46.7406 66.9208 47.1127C66.9621 47.152 67 47.2261 67 47.3431V48.5H61L61 47.3431Z" stroke="#2B5EAE"/>
<path d="M56.6423 31.308C56.6882 31.2572 56.7372 31.228 56.7831 31.2152L56.6755 30.8288L56.7831 31.2152C57.0888 31.13 57.75 30.9794 58.5042 31.0083C59.2573 31.0372 60.0713 31.2432 60.7287 31.8376C61.3954 32.4404 61.6307 33.1986 61.6769 33.8942C61.7235 34.5954 61.5751 35.2092 61.4984 35.4697C61.4893 35.5007 61.4702 35.5363 61.4343 35.576L60.8262 36.2486L56.0664 31.9449L56.6423 31.308Z" stroke="#2B5EAE" stroke-width="0.802117"/>
<path d="M64 46L68.379 41.1831C68.7297 40.7973 68.7252 40.2068 68.3686 39.8265L61.5 32.5" stroke="#2B5EAE" stroke-linecap="round"/>
<circle cx="38.5" cy="17" r="5.5" stroke="#2B5EAE"/>
<path d="M38.5 13V17L40.5 18.5" stroke="#2B5EAE" stroke-linecap="round"/>
</svg>
