<svg width="80" height="80" viewBox="0 0 80 80" fill="none" xmlns="http://www.w3.org/2000/svg">
<g filter="url(#filter0_d_292_1009)">
<rect x="15.5" y="47.5" width="34" height="8" rx="0.5" stroke="#2B5EAE"/>
<path d="M18.5 56V59M18.5 62V69.5" stroke="#2B5EAE" stroke-linecap="round"/>
<path d="M21 56V59M21 62V69.5" stroke="#2B5EAE" stroke-linecap="round"/>
<path d="M44 56V59M44 62V69.5" stroke="#2B5EAE" stroke-linecap="round"/>
<path d="M46.5 56V59M46.5 62V69.5" stroke="#2B5EAE" stroke-linecap="round"/>
<path d="M13.5 60C13.5 59.7239 13.7239 59.5 14 59.5H51C51.2761 59.5 51.5 59.7239 51.5 60V61C51.5 61.2761 51.2761 61.5 51 61.5H14C13.7239 61.5 13.5 61.2761 13.5 61V60Z" stroke="#2B5EAE"/>
<circle cx="20" cy="51.5" r="1" fill="#2B5EAE"/>
<circle cx="45" cy="51.5" r="1" fill="#2B5EAE"/>
<path d="M46.5 69.5H44" stroke="#2B5EAE" stroke-linecap="round"/>
<path d="M21 69.5H18.5" stroke="#2B5EAE" stroke-linecap="round"/>
<path d="M58.2115 50C51.5969 49.527 46 41.9595 46 34.8649C46 28.1203 50.0016 25.1549 50.9075 24.57C51.0156 24.5002 51.0721 24.3724 51.0525 24.2452C50.1935 18.6887 54.9968 15 59.7381 15C64.464 15 68.7586 20.0391 67.9235 24.2565C67.8992 24.379 67.9446 24.5043 68.0439 24.5801C68.9656 25.2826 73.4238 29.07 72.9673 36.2838C72.4585 44.3243 65.8438 50 59.7381 50" stroke="#2B5EAE" stroke-linecap="round"/>
<path d="M59 24V69.5" stroke="#2B5EAE" stroke-linecap="round"/>
<path d="M59 40.5L65 34.5" stroke="#2B5EAE" stroke-linecap="round"/>
<path d="M59 32L55.5 28" stroke="#2B5EAE" stroke-linecap="round"/>
<line x1="11.8864" y1="20.5911" x2="10.5" y2="20.5911" stroke="#2B5EAE" stroke-linecap="round"/>
<line x1="0.5" y1="-0.5" x2="1.87758" y2="-0.5" transform="matrix(-0.840068 -0.542481 0.552005 -0.833841 13.7019 15.657)" stroke="#2B5EAE" stroke-linecap="round"/>
<line x1="0.5" y1="-0.5" x2="1.85802" y2="-0.5" transform="matrix(-0.196049 -0.980594 0.981509 -0.191416 17.9624 13.3123)" stroke="#2B5EAE" stroke-linecap="round"/>
<path d="M23.5 13.5L24.4999 12.4999" stroke="#2B5EAE" stroke-linecap="round"/>
<mask id="path-20-inside-1_292_1009" fill="white">
<path fill-rule="evenodd" clip-rule="evenodd" d="M31.6173 17.4917C30.4274 15.9747 28.5775 15 26.5 15C23.3212 15 20.6753 17.2819 20.1111 20.297C19.6109 20.1051 19.0677 20 18.5 20C16.0147 20 14 22.0147 14 24.5C14 26.9853 16.0147 29 18.5 29C19.5343 29 20.4872 28.651 21.2472 28.0644C22.8005 29.2545 25.0269 30 27.5 30C29.393 30 31.1414 29.5632 32.5541 28.8246C33.0172 28.9392 33.5015 29 34 29C37.3137 29 40 26.3137 40 23C40 19.6863 37.3137 17 34 17C33.1534 17 32.3477 17.1753 31.6173 17.4917Z"/>
</mask>
<path d="M31.6173 17.4917L30.8305 18.1089L31.3067 18.716L32.0148 18.4093L31.6173 17.4917ZM20.1111 20.297L19.753 21.2307L20.8733 21.6604L21.094 20.4809L20.1111 20.297ZM21.2472 28.0644L21.8554 27.2706L21.2449 26.8029L20.6362 27.2728L21.2472 28.0644ZM32.5541 28.8246L32.7943 27.8539L32.4265 27.7629L32.0907 27.9384L32.5541 28.8246ZM32.4042 16.8745C31.0329 15.1262 28.8977 14 26.5 14V16C28.2574 16 29.822 16.8231 30.8305 18.1089L32.4042 16.8745ZM26.5 14C22.831 14 19.7793 16.6335 19.1282 20.1131L21.094 20.4809C21.5713 17.9303 23.8113 16 26.5 16V14ZM20.4692 19.3633C19.8565 19.1283 19.1921 19 18.5 19V21C18.9434 21 19.3653 21.082 19.753 21.2307L20.4692 19.3633ZM18.5 19C15.4624 19 13 21.4624 13 24.5H15C15 22.567 16.567 21 18.5 21V19ZM13 24.5C13 27.5376 15.4624 30 18.5 30V28C16.567 28 15 26.433 15 24.5H13ZM18.5 30C19.7631 30 20.9293 29.573 21.8582 28.856L20.6362 27.2728C20.045 27.7291 19.3056 28 18.5 28V30ZM20.639 28.8582C22.3892 30.1991 24.8369 31 27.5 31V29C25.2169 29 23.2118 28.3098 21.8554 27.2706L20.639 28.8582ZM27.5 31C29.5429 31 31.452 30.5293 33.0174 29.7108L32.0907 27.9384C30.8308 28.5971 29.243 29 27.5 29V31ZM34 28C33.5831 28 33.1794 27.9492 32.7943 27.8539L32.3139 29.7953C32.855 29.9292 33.4199 30 34 30V28ZM39 23C39 25.7614 36.7614 28 34 28V30C37.866 30 41 26.866 41 23H39ZM34 18C36.7614 18 39 20.2386 39 23H41C41 19.134 37.866 16 34 16V18ZM32.0148 18.4093C32.6221 18.1463 33.2926 18 34 18V16C33.0141 16 32.0734 16.2044 31.2199 16.5741L32.0148 18.4093Z" fill="#2B5EAE" mask="url(#path-20-inside-1_292_1009)"/>
<path fill-rule="evenodd" clip-rule="evenodd" d="M19.7019 15.0037C20.4631 15.0317 21.2059 15.2172 21.8849 15.544C21.9727 15.5862 22.0685 15.61 22.1659 15.61H22.3016C22.7605 15.61 23.04 15.0293 22.6381 14.8077C21.7518 14.3191 20.7593 14.0419 19.7387 14.0044C18.3819 13.9545 17.0436 14.3308 15.9115 15.0803C14.7795 15.8299 13.9106 16.9151 13.4268 18.1836C13.0628 19.1379 12.9305 20.1598 13.0343 21.1666C13.0399 21.2217 13.0751 21.2841 13.1289 21.3493C13.4414 21.7286 14.0084 21.4 14.0152 20.9086C13.9555 20.1073 14.0718 19.2984 14.3611 18.54C14.7705 17.4666 15.5057 16.5483 16.4636 15.9141C17.4215 15.2799 18.5539 14.9615 19.7019 15.0037Z" fill="#2B5EAE"/>
</g>
<defs>
<filter id="filter0_d_292_1009" x="7" y="9.08636" width="69.5001" height="64.9136" filterUnits="userSpaceOnUse" color-interpolation-filters="sRGB">
<feFlood flood-opacity="0" result="BackgroundImageFix"/>
<feColorMatrix in="SourceAlpha" type="matrix" values="0 0 0 0 0 0 0 0 0 0 0 0 0 0 0 0 0 0 127 0" result="hardAlpha"/>
<feOffset dy="1"/>
<feGaussianBlur stdDeviation="1.5"/>
<feComposite in2="hardAlpha" operator="out"/>
<feColorMatrix type="matrix" values="0 0 0 0 0.0705903 0 0 0 0 0.16166 0 0 0 0 0.395833 0 0 0 0.25 0"/>
<feBlend mode="normal" in2="BackgroundImageFix" result="effect1_dropShadow_292_1009"/>
<feBlend mode="normal" in="SourceGraphic" in2="effect1_dropShadow_292_1009" result="shape"/>
</filter>
</defs>
</svg>
