<svg width="80" height="80" viewBox="0 0 80 80" fill="none" xmlns="http://www.w3.org/2000/svg">
<path d="M7.49504 36.9203L28.9867 28.5868C29.297 28.4665 29.5432 28.8657 29.2964 29.089L20.0857 37.4225C20.0305 37.4724 19.9588 37.5 19.8844 37.5H7.6035C7.27139 37.5 7.1854 37.0404 7.49504 36.9203Z" stroke="#2B5EAE" stroke-linecap="round"/>
<path d="M51.005 36.9203L29.5133 28.5868C29.203 28.4665 28.9568 28.8657 29.2036 29.089L38.4143 37.4225C38.4695 37.4724 38.5412 37.5 38.6156 37.5H50.8965C51.2286 37.5 51.3146 37.0404 51.005 36.9203Z" stroke="#2B5EAE" stroke-linecap="round"/>
<path d="M20 37.5H38.5" stroke="#2B5EAE" stroke-linecap="round"/>
<path d="M7.5 37.5V39.5C7.5 40.0523 7.94772 40.5 8.5 40.5H19C19.5523 40.5 20 40.0523 20 39.5V37.5" stroke="#2B5EAE" stroke-linecap="round"/>
<path d="M38.5 37.5V39.5C38.5 40.0523 38.9477 40.5 39.5 40.5H50C50.5523 40.5 51 40.0523 51 39.5V37.5" stroke="#2B5EAE" stroke-linecap="round"/>
<path d="M20 37.5V39.5C20 40.0523 20.4477 40.5 21 40.5H37.5C38.0523 40.5 38.5 40.0523 38.5 39.5V37.5" stroke="#2B5EAE" stroke-linecap="round"/>
<path d="M29.5 41.5V73" stroke="#2B5EAE" stroke-linecap="round"/>
<path d="M23.8846 63.423H14.3178C14.1058 63.423 13.9185 63.2852 13.8552 63.0829L10.5906 52.636C10.224 51.4629 8.96601 50.819 7.80001 51.2077C7.63238 51.2636 7.53869 51.4418 7.58769 51.6115L11.7835 66.1498C11.8434 66.3572 12.0332 66.5 12.2491 66.5H25.0154C25.283 66.5 25.5 66.283 25.5 66.0154V65.0384C25.5 64.1462 24.7768 63.423 23.8846 63.423Z" stroke="#2B5EAE" stroke-linecap="round"/>
<path d="M9.9231 60.1921H23.0001" stroke="#2B5EAE" stroke-linecap="round"/>
<path d="M21.0383 60.1921L24.4999 72.5" stroke="#2B5EAE" stroke-linecap="round"/>
<path d="M11.8846 66.5L9.5 72.5" stroke="#2B5EAE" stroke-linecap="round"/>
<path d="M35.1154 63.423H44.6822C44.8942 63.423 45.0815 63.2852 45.1448 63.0829L48.4094 52.636C48.776 51.4629 50.034 50.819 51.2 51.2077C51.3676 51.2636 51.4613 51.4418 51.4123 51.6115L47.2165 66.1498C47.1566 66.3572 46.9668 66.5 46.7509 66.5H33.9846C33.717 66.5 33.5 66.283 33.5 66.0154V65.0384C33.5 64.1462 34.2232 63.423 35.1154 63.423Z" stroke="#2B5EAE" stroke-linecap="round"/>
<path d="M49.0769 60.1921H35.9999" stroke="#2B5EAE" stroke-linecap="round"/>
<path d="M37.9617 60.1921L34.5001 72.5" stroke="#2B5EAE" stroke-linecap="round"/>
<path d="M47.1154 66.5L49.5 72.5" stroke="#2B5EAE" stroke-linecap="round"/>
<path d="M21.5 57.5H38" stroke="#2B5EAE" stroke-linecap="round"/>
<path d="M61.5 58C61.5 58 62.0849 63.5 68 63.5C73.9151 63.5 74 58 74 58" stroke="#2B5EAE" stroke-linecap="round"/>
<path d="M61.5 58H74" stroke="#2B5EAE" stroke-linecap="round"/>
<path d="M63 58V56.3C63 56.1343 63.1343 56 63.3 56H72.2C72.3657 56 72.5 56.1343 72.5 56.3V58" stroke="#2B5EAE" stroke-linecap="round"/>
<path d="M64.5 63L62 72.5" stroke="#2B5EAE" stroke-linecap="round"/>
<path d="M71.5 63L74 72.5" stroke="#2B5EAE" stroke-linecap="round"/>
<path d="M71 52C70.1666 51.6667 68.8 50.6 70 49C71.2 47.4 71.1666 46.3333 71 46" stroke="#2B5EAE" stroke-linecap="round"/>
<path d="M67 54C66.1666 53.6667 64.8 52.6 66 51C67.2 49.4 67.1666 48.3333 67 48" stroke="#2B5EAE" stroke-linecap="round"/>
<line x1="0.5" y1="-0.5" x2="1.88637" y2="-0.5" transform="matrix(1 0 0 -1 66.1135 16.5911)" stroke="#2B5EAE" stroke-linecap="round"/>
<line x1="0.5" y1="-0.5" x2="1.87758" y2="-0.5" transform="matrix(0.840068 -0.542481 -0.552005 -0.833841 64.7981 12.157)" stroke="#2B5EAE" stroke-linecap="round"/>
<line x1="0.5" y1="-0.5" x2="1.85802" y2="-0.5" transform="matrix(0.196049 -0.980594 -0.981509 -0.191416 60.5376 9.81226)" stroke="#2B5EAE" stroke-linecap="round"/>
<path d="M55 10L54.0001 8.99989" stroke="#2B5EAE" stroke-linecap="round"/>
<mask id="path-29-inside-1_296_1084" fill="white">
<path fill-rule="evenodd" clip-rule="evenodd" d="M46.8827 13.9917C48.0726 12.4747 49.9225 11.5 52 11.5C55.1788 11.5 57.8247 13.7819 58.3889 16.797C58.8891 16.6051 59.4323 16.5 60 16.5C62.4853 16.5 64.5 18.5147 64.5 21C64.5 23.4853 62.4853 25.5 60 25.5C58.9657 25.5 58.0128 25.151 57.2528 24.5644C55.6995 25.7545 53.4731 26.5 51 26.5C49.107 26.5 47.3586 26.0632 45.9459 25.3246C45.4828 25.4392 44.9985 25.5 44.5 25.5C41.1863 25.5 38.5 22.8137 38.5 19.5C38.5 16.1863 41.1863 13.5 44.5 13.5C45.3466 13.5 46.1523 13.6753 46.8827 13.9917Z"/>
</mask>
<path d="M46.8827 13.9917L47.6695 14.6089L47.1933 15.216L46.4852 14.9093L46.8827 13.9917ZM58.3889 16.797L58.747 17.7307L57.6267 18.1604L57.406 16.9809L58.3889 16.797ZM57.2528 24.5644L56.6446 23.7706L57.2551 23.3029L57.8638 23.7728L57.2528 24.5644ZM45.9459 25.3246L45.7057 24.3539L46.0735 24.2629L46.4093 24.4384L45.9459 25.3246ZM46.0958 13.3745C47.4671 11.6262 49.6023 10.5 52 10.5V12.5C50.2426 12.5 48.678 13.3231 47.6695 14.6089L46.0958 13.3745ZM52 10.5C55.669 10.5 58.7207 13.1335 59.3718 16.6131L57.406 16.9809C56.9287 14.4303 54.6887 12.5 52 12.5V10.5ZM58.0308 15.8633C58.6435 15.6283 59.3079 15.5 60 15.5V17.5C59.5566 17.5 59.1347 17.582 58.747 17.7307L58.0308 15.8633ZM60 15.5C63.0376 15.5 65.5 17.9624 65.5 21H63.5C63.5 19.067 61.933 17.5 60 17.5V15.5ZM65.5 21C65.5 24.0376 63.0376 26.5 60 26.5V24.5C61.933 24.5 63.5 22.933 63.5 21H65.5ZM60 26.5C58.7369 26.5 57.5707 26.073 56.6418 25.356L57.8638 23.7728C58.455 24.2291 59.1944 24.5 60 24.5V26.5ZM57.861 25.3582C56.1108 26.6991 53.6631 27.5 51 27.5V25.5C53.2831 25.5 55.2882 24.8098 56.6446 23.7706L57.861 25.3582ZM51 27.5C48.9571 27.5 47.048 27.0293 45.4826 26.2108L46.4093 24.4384C47.6692 25.0971 49.257 25.5 51 25.5V27.5ZM44.5 24.5C44.9169 24.5 45.3206 24.4492 45.7057 24.3539L46.1861 26.2953C45.645 26.4292 45.0801 26.5 44.5 26.5V24.5ZM39.5 19.5C39.5 22.2614 41.7386 24.5 44.5 24.5V26.5C40.634 26.5 37.5 23.366 37.5 19.5H39.5ZM44.5 14.5C41.7386 14.5 39.5 16.7386 39.5 19.5H37.5C37.5 15.634 40.634 12.5 44.5 12.5V14.5ZM46.4852 14.9093C45.8779 14.6463 45.2074 14.5 44.5 14.5V12.5C45.4859 12.5 46.4266 12.7044 47.2801 13.0741L46.4852 14.9093Z" fill="#2B5EAE" mask="url(#path-29-inside-1_296_1084)"/>
<path fill-rule="evenodd" clip-rule="evenodd" d="M58.7981 11.5037C58.0369 11.5317 57.2941 11.7172 56.6151 12.044C56.5273 12.0862 56.4315 12.11 56.3341 12.11H56.1984C55.7395 12.11 55.46 11.5293 55.8619 11.3077C56.7482 10.8191 57.7407 10.5419 58.7613 10.5044C60.1181 10.4545 61.4564 10.8308 62.5885 11.5803C63.7205 12.3299 64.5894 13.4151 65.0732 14.6836C65.4372 15.6379 65.5695 16.6598 65.4657 17.6666C65.4601 17.7217 65.4249 17.7841 65.3711 17.8493C65.0586 18.2286 64.4916 17.9 64.4848 17.4086C64.5445 16.6073 64.4282 15.7984 64.1389 15.04C63.7295 13.9666 62.9943 13.0483 62.0364 12.4141C61.0785 11.7799 59.9461 11.4615 58.7981 11.5037Z" fill="#2B5EAE"/>
</svg>
