<svg width="80" height="80" viewBox="0 0 80 80" fill="none" xmlns="http://www.w3.org/2000/svg">
<path d="M19.5 47C19.5 46.7239 19.7239 46.5 20 46.5H23C23.2761 46.5 23.5 46.7239 23.5 47V55.5C23.5 56.0523 23.9477 56.5 24.5 56.5H43C43.8284 56.5 44.5 55.8284 44.5 55V47C44.5 46.7239 44.7239 46.5 45 46.5H48C48.2761 46.5 48.5 46.7239 48.5 47V59C48.5 59.2761 48.2761 59.5 48 59.5H20C19.7239 59.5 19.5 59.2761 19.5 59V47Z" stroke="#2B5EAE"/>
<path d="M23.5 44C23.5 42.6193 24.6193 41.5 26 41.5H42C43.3807 41.5 44.5 42.6193 44.5 44V56C44.5 56.2761 44.2761 56.5 44 56.5H24C23.7239 56.5 23.5 56.2761 23.5 56V44Z" stroke="#2B5EAE"/>
<path d="M23.5 53C23.5 52.1716 24.1716 51.5 25 51.5H43C43.8284 51.5 44.5 52.1716 44.5 53V56C44.5 56.2761 44.2761 56.5 44 56.5H24C23.7239 56.5 23.5 56.2761 23.5 56V53Z" stroke="#2B5EAE"/>
<path d="M29.7025 44.6995C29.7008 44.6922 29.7004 44.6754 29.7188 44.6552C29.7273 44.646 29.7358 44.641 29.7413 44.6389C29.7455 44.6373 29.7483 44.6371 29.7522 44.6377C30.7045 44.7872 32.3481 45 34 45C35.6519 45 37.2955 44.7872 38.2478 44.6377C38.2517 44.6371 38.2545 44.6373 38.2587 44.6389C38.2642 44.641 38.2727 44.646 38.2812 44.6552C38.2996 44.6754 38.2992 44.6922 38.2975 44.6995C38.1129 45.4834 37.875 46.7353 37.875 48C37.875 49.2647 38.1129 50.5166 38.2975 51.3005C38.2992 51.3078 38.2996 51.3246 38.2812 51.3448C38.2727 51.354 38.2642 51.359 38.2587 51.3611C38.2545 51.3627 38.2517 51.3629 38.2478 51.3623C37.2955 51.2128 35.6519 51 34 51C32.3481 51 30.7045 51.2128 29.7522 51.3623C29.7483 51.3629 29.7455 51.3627 29.7413 51.3611C29.7358 51.359 29.7273 51.354 29.7188 51.3448C29.7004 51.3246 29.7008 51.3078 29.7025 51.3005C29.8871 50.5166 30.125 49.2647 30.125 48C30.125 46.7353 29.8871 45.4834 29.7025 44.6995Z" stroke="#2B5EAE"/>
<rect x="22.5" y="59.5" width="2" height="4" rx="0.5" stroke="#2B5EAE"/>
<rect x="43.5" y="59.5" width="2" height="4" rx="0.5" stroke="#2B5EAE"/>
<path d="M15.5 37.5V61.5" stroke="#2B5EAE" stroke-linecap="round"/>
<path d="M12.8991 25.5L18.1009 25.5L20.3736 35.5L10.6264 35.5L12.8991 25.5Z" stroke="#2B5EAE"/>
<path d="M17.5 36C17.5 36.7301 16.7145 37.5 15.5 37.5C14.2855 37.5 13.5 36.7301 13.5 36C13.5 35.8107 13.546 35.7378 13.5738 35.7058C13.608 35.6665 13.6815 35.6134 13.8523 35.5711C14.0245 35.5285 14.2501 35.5079 14.5394 35.5007C14.7337 35.4959 14.9362 35.4971 15.1563 35.4985C15.2661 35.4992 15.3803 35.4999 15.5 35.4999C15.6197 35.4999 15.7339 35.4992 15.8437 35.4985C16.0638 35.4971 16.2663 35.4959 16.4606 35.5007C16.7499 35.5079 16.9755 35.5285 17.1477 35.5711C17.3185 35.6134 17.392 35.6665 17.4262 35.7058C17.454 35.7378 17.5 35.8107 17.5 36Z" stroke="#2B5EAE"/>
<path d="M18.4351 63.5H18.5C18.5005 63.5 18.5007 63.5 18.5007 63.5C18.5007 63.4999 18.5005 63.5 18.5 63.5001C18.4979 63.5005 18.4916 63.5027 18.4829 63.5119C18.4759 63.5194 18.467 63.5323 18.4614 63.5509C18.4554 63.5707 18.4554 63.5894 18.458 63.6024C18.4512 63.5686 18.4436 63.5344 18.4351 63.5ZM18.4351 63.5H15.5H12.5649M18.4351 63.5C18.3286 63.0682 18.0861 62.5913 17.6621 62.2146C17.2119 61.8146 16.5265 61.4999 15.5 61.4999C14.4735 61.4999 13.7881 61.8146 13.3379 62.2146C12.9139 62.5913 12.6714 63.0682 12.5649 63.5M12.5649 63.5H12.5C12.4995 63.5 12.4993 63.5 12.4993 63.5C12.4993 63.4999 12.4995 63.5 12.5 63.5001C12.5021 63.5005 12.5084 63.5027 12.5171 63.5119C12.5241 63.5194 12.533 63.5323 12.5386 63.5509C12.5446 63.5707 12.5446 63.5894 12.542 63.6024C12.5488 63.5686 12.5564 63.5344 12.5649 63.5Z" stroke="#2B5EAE"/>
<rect x="52.5" y="51.5" width="16" height="2" rx="0.5" stroke="#2B5EAE"/>
<path d="M53.5 53.5H55.5V62C55.5 62.2761 55.2761 62.5 55 62.5H54C53.7239 62.5 53.5 62.2761 53.5 62V53.5Z" stroke="#2B5EAE"/>
<path d="M65.5 53.5H67.5V62C67.5 62.2761 67.2761 62.5 67 62.5H66C65.7239 62.5 65.5 62.2761 65.5 62V53.5Z" stroke="#2B5EAE"/>
<circle cx="34" cy="22" r="5.5" stroke="#2B5EAE"/>
<path d="M34 18V22L36 23.5" stroke="#2B5EAE" stroke-linecap="round"/>
<path d="M57.6342 46.5L57.6342 46.5H60H62.3658L61.4058 50.5H58.5942L57.6342 46.5Z" stroke="#2B5EAE"/>
<path d="M59.7284 44.0876C60.0242 44.48 60.0786 45.0668 60.0178 45.6434C59.992 45.8886 59.9475 46.1111 59.9057 46.2829C59.7291 46.2757 59.5029 46.2573 59.2601 46.2147C58.689 46.1145 58.1398 45.9006 57.844 45.5083C57.6912 45.3056 57.5521 44.9871 57.4352 44.5843C57.3206 44.1894 57.2375 43.75 57.1782 43.3334C57.1376 43.0481 57.1086 42.7778 57.0882 42.5458C57.3056 42.6293 57.5576 42.7315 57.8206 42.8491C58.2048 43.0207 58.6044 43.2214 58.9525 43.4403C59.3076 43.6635 59.5756 43.8849 59.7284 44.0876ZM59.811 46.617C59.811 46.6171 59.811 46.6171 59.811 46.617L59.811 46.617ZM60.253 46.2837C60.2531 46.2837 60.2531 46.2837 60.253 46.2837L60.253 46.2837Z" stroke="#2B5EAE"/>
<path d="M61.1088 44.0187C60.7928 44.395 60.7076 44.9782 60.738 45.5571C60.7509 45.8033 60.7837 46.0279 60.8163 46.2016C60.9931 46.2038 61.2199 46.1973 61.4647 46.1675C62.0402 46.0974 62.5999 45.9127 62.9159 45.5365C63.0792 45.3421 63.2349 45.0314 63.3728 44.6353C63.508 44.2469 63.614 43.8125 63.6951 43.3996C63.7507 43.1169 63.7938 42.8485 63.8265 42.6178C63.6049 42.6898 63.348 42.7786 63.0791 42.8822C62.6864 43.0334 62.2768 43.2128 61.9177 43.4131C61.5513 43.6173 61.2721 43.8244 61.1088 44.0187ZM60.8934 46.5403C60.8934 46.5404 60.8934 46.5403 60.8934 46.5402L60.8934 46.5403ZM60.4695 46.1842C60.4694 46.1842 60.4694 46.1842 60.4695 46.1842L60.4695 46.1842Z" stroke="#2B5EAE"/>
<path d="M58.895 42.0826C58.8912 42.6243 59.2578 43.1833 59.7307 43.6582C59.9563 43.8848 60.1841 44.0702 60.3562 44.1991C60.3608 44.2026 60.3655 44.2061 60.37 44.2095C60.3747 44.2061 60.3793 44.2027 60.384 44.1993C60.5579 44.0728 60.7883 43.8906 61.017 43.6673C61.4966 43.199 61.871 42.6453 61.8749 42.1036C61.8768 41.8243 61.7835 41.4518 61.6092 41.0196C61.4383 40.596 61.2058 40.154 60.9672 39.7479C60.77 39.4125 60.572 39.1073 60.4076 38.8649C60.2398 39.105 60.0376 39.4073 59.8357 39.74C59.5914 40.1427 59.3527 40.5813 59.1759 41.0025C58.9955 41.4322 58.8969 41.8033 58.895 42.0826Z" stroke="#2B5EAE"/>
</svg>
