<svg width="80" height="80" viewBox="0 0 80 80" fill="none" xmlns="http://www.w3.org/2000/svg">
<path d="M21.5967 51.5H21.6068H21.6174H21.628H21.6387H21.6495H21.6604H21.6714H21.6825H21.6936H21.7049H21.7162H21.7276H21.7391H21.7506H21.7623H21.774H21.7858H21.7978H21.8097H21.8218H21.834H21.8462H21.8585H21.8709H21.8834H21.8959H21.9086H21.9213H21.9341H21.947H21.9599H21.973H21.9861H21.9993H22.0126H22.026H22.0394H22.0529H22.0665H22.0802H22.094H22.1078H22.1218H22.1358H22.1498H22.164H22.1782H22.1926H22.2069H22.2214H22.236H22.2506H22.2653H22.2801H22.2949H22.3099H22.3249H22.34H22.3551H22.3704H22.3857H22.4011H22.4166H22.4321H22.4477H22.4634H22.4792H22.4951H22.511H22.527H22.543H22.5592H22.5754H22.5917H22.6081H22.6245H22.641H22.6576H22.6743H22.691H22.7078H22.7247H22.7417H22.7587H22.7758H22.793H22.8102H22.8276H22.8449H22.8624H22.8799H22.8975H22.9152H22.933H22.9508H22.9687H22.9866H23.0047H23.0228H23.041H23.0592H23.0775H23.0959H23.1143H23.1329H23.1515H23.1701H23.1888H23.2076H23.2265H23.2454H23.2644H23.2835H23.3027H23.3219H23.3411H23.3605H23.3799H23.3994H23.4189H23.4385H23.4582H23.478H23.4978H23.5176H23.5376H23.5576H23.5777H23.5978H23.618H23.6383H23.6586H23.679H23.6995H23.7201H23.7406H23.7613H23.782H23.8028H23.8237H23.8446H23.8656H23.8866H23.9078H23.9289H23.9502H23.9715H23.9928H24.0143H24.0358H24.0573H24.0789H24.1006H24.1223H24.1441H24.166H24.1879H24.2099H24.232H24.2541H24.2762H24.2985H24.3207H24.3431H24.3655H24.388H24.4105H24.4331H24.4557H24.4785H24.5012H24.524H24.5469H24.5699H24.5929H24.6159H24.6391H24.6623H24.6855H24.7088H24.7321H24.7556H24.779H24.8025H24.8261H24.8498H24.8735H24.8972H24.921H24.9449H24.9688H24.9928H25.0168H25.0409H25.0651H25.0893H25.1135H25.1379H25.1622H25.1866H25.2111H25.2357H25.2602H25.2849H25.3096H25.3343H25.3591H25.384H25.4089H25.4339H25.4589H25.484H25.5091H25.5343H25.5595H25.5848H25.6101H25.6355H25.6609H25.6864H25.712H25.7375H25.7632H25.7889H25.8146H25.8404H25.8663H25.8922H25.9181H25.9441H25.9702H25.9963H26.0224H26.0486H26.0749H26.1012H26.1275H26.1539H26.1804H26.2069H26.2334H26.26H26.2866H26.3133H26.3401H26.3668H26.3937H26.4206H26.4475H26.4745H26.5015H26.5285H26.5557H26.5828H26.61H26.6373H26.6646H26.6919H26.7193H26.7468H26.7742H26.8018H26.8294H26.857H26.8846H26.9123H26.9401H26.9679H26.9957H27.0236H27.0516H27.0795H27.1075H27.1356H27.1637H27.1919H27.2201H27.2483H27.2766H27.3049H27.3333H27.3617H27.3901H27.4186H27.4471H27.4757H27.5043H27.533H27.5617H27.5904H27.6192H27.648H27.6769H27.7058H27.7347H27.7637H27.7927H27.8218H27.8509H27.88H27.9092H27.9384H27.9677H27.997H28.0263H28.0557H28.0851H28.1145H28.144H28.1736H28.2031H28.2327H28.2624H28.2921H28.3218H28.3515H28.3813H28.4111H28.441H28.4709H28.5008H28.5308H28.5608H28.5909H28.621H28.6511H28.6812H28.7114H28.7416H28.7719H28.8022H28.8325H28.8629H28.8933H28.9237H28.9542H28.9847H29.0152H29.0457H29.0763H29.107H29.1376H29.1683H29.1991H29.2298H29.2606H29.2915H29.3223H29.3532H29.3841H29.4151H29.4461H29.4771H29.5081H29.5392H29.5703H29.6015H29.6327H29.6639H29.6951H29.7264H29.7577H29.789H29.8203H29.8517H29.8831H29.9146H29.9461H29.9776H30.0091H30.0406H30.0722H30.1039H30.1355H30.1672H30.1989H30.2306H30.2624H30.2941H30.3259H30.3578H30.3896H30.4215H30.4535H30.4854H30.5174H30.5494H30.5814H30.6134H30.6455H30.6776H30.7097H30.7419H30.7741H30.8063H30.8385H30.8708H30.903H30.9353H30.9677H31H31.0323H31.0647H31.097H31.1292H31.1615H31.1937H31.2259H31.2581H31.2903H31.3224H31.3545H31.3866H31.4186H31.4506H31.4826H31.5146H31.5465H31.5785H31.6104H31.6422H31.6741H31.7059H31.7376H31.7694H31.8011H31.8328H31.8645H31.8961H31.9278H31.9594H31.9909H32.0224H32.0539H32.0854H32.1169H32.1483H32.1797H32.211H32.2423H32.2736H32.3049H32.3361H32.3673H32.3985H32.4297H32.4608H32.4919H32.5229H32.5539H32.5849H32.6159H32.6468H32.6777H32.7085H32.7394H32.7702H32.8009H32.8317H32.8624H32.893H32.9237H32.9543H32.9848H33.0153H33.0458H33.0763H33.1067H33.1371H33.1675H33.1978H33.2281H33.2584H33.2886H33.3188H33.3489H33.379H33.4091H33.4392H33.4692H33.4992H33.5291H33.559H33.5889H33.6187H33.6485H33.6782H33.7079H33.7376H33.7673H33.7969H33.8264H33.856H33.8855H33.9149H33.9443H33.9737H34.003H34.0323H34.0616H34.0908H34.12H34.1491H34.1782H34.2073H34.2363H34.2653H34.2942H34.3231H34.352H34.3808H34.4096H34.4383H34.467H34.4957H34.5243H34.5529H34.5814H34.6099H34.6383H34.6667H34.6951H34.7234H34.7517H34.7799H34.8081H34.8363H34.8644H34.8925H34.9205H34.9484H34.9764H35.0043H35.0321H35.0599H35.0877H35.1154H35.143H35.1706H35.1982H35.2258H35.2532H35.2807H35.3081H35.3354H35.3627H35.39H35.4172H35.4443H35.4715H35.4985H35.5255H35.5525H35.5794H35.6063H35.6332H35.6599H35.6867H35.7134H35.74H35.7666H35.7931H35.8196H35.8461H35.8725H35.8988H35.9251H35.9514H35.9776H36.0037H36.0298H36.0559H36.0819H36.1078H36.1337H36.1596H36.1854H36.2111H36.2368H36.2625H36.288H36.3136H36.3391H36.3645H36.3899H36.4152H36.4405H36.4657H36.4909H36.516H36.5411H36.5661H36.5911H36.616H36.6409H36.6657H36.6904H36.7151H36.7398H36.7643H36.7889H36.8134H36.8378H36.8621H36.8865H36.9107H36.9349H36.9591H36.9832H37.0072H37.0312H37.0551H37.079H37.1028H37.1265H37.1502H37.1739H37.1975H37.221H37.2444H37.2679H37.2912H37.3145H37.3377H37.3609H37.3841H37.4071H37.4301H37.4531H37.476H37.4988H37.5215H37.5443H37.5669H37.5895H37.612H37.6345H37.6569H37.6793H37.7015H37.7238H37.7459H37.768H37.7901H37.8121H37.834H37.8559H37.8777H37.8994H37.9211H37.9427H37.9642H37.9857H38.0072H38.0285H38.0498H38.0711H38.0922H38.1134H38.1344H38.1554H38.1763H38.1972H38.218H38.2387H38.2593H38.2799H38.3005H38.321H38.3414H38.3617H38.382H38.4022H38.4223H38.4424H38.4624H38.4824H38.5022H38.522H38.5418H38.5615H38.5811H38.6006H38.6201H38.6395H38.6589H38.6781H38.6973H38.7165H38.7356H38.7546H38.7735H38.7924H38.8112H38.8299H38.8485H38.8671H38.8857H38.9041H38.9225H38.9408H38.959H38.9772H38.9953H39.0134H39.0313H39.0492H39.067H39.0848H39.1025H39.1201H39.1376H39.1551H39.1724H39.1898H39.207H39.2242H39.2413H39.2583H39.2753H39.2922H39.309H39.3257H39.3424H39.359H39.3755H39.3919H39.4083H39.4246H39.4408H39.457H39.473H39.489H39.5049H39.5208H39.5366H39.5523H39.5679H39.5834H39.5989H39.6143H39.6296H39.6449H39.66H39.6751H39.6901H39.7051H39.7199H39.7347H39.7494H39.764H39.7786H39.7931H39.8074H39.8218H39.836H39.8502H39.8642H39.8782H39.8922H39.906H39.9198H39.9335H39.9471H39.9606H39.974H39.9874H40.0007H40.0139H40.027H40.0401H40.053H40.0659H40.0787H40.0914H40.1041H40.1166H40.1291H40.1415H40.1538H40.166H40.1782H40.1903H40.2022H40.2142H40.226H40.2377H40.2494H40.2609H40.2724H40.2838H40.2951H40.3064H40.3175H40.3286H40.3396H40.3505H40.3613H40.372H40.3826H40.3932H40.4033C39.8827 54.2544 38.9308 56.9341 37.4697 58.9573C35.916 61.1085 33.8042 62.5 31 62.5C28.1958 62.5 26.084 61.1085 24.5303 58.9573C23.0692 56.9341 22.1173 54.2544 21.5967 51.5Z" stroke="#2B5EAE"/>
<path fill-rule="evenodd" clip-rule="evenodd" d="M69.7041 39H69.7091C69.05 41.3312 68.085 43.4747 66.4617 45.0784C65.3686 46.1583 63.9346 47.0346 61.9978 47.5368C61.9955 47.5736 61.9985 47.5245 61.9978 47.5368C61.9978 47.5368 61.6165 47.6071 60.9856 47.7221C60.253 47.8557 59.1869 48 58 48C56.8132 48 55.747 47.8557 55.0145 47.7221C54.3835 47.6071 54.0023 47.5368 54.0023 47.5368C52.0655 47.0346 50.6315 46.1583 49.5384 45.0784C47.915 43.4747 46.9501 41.3312 46.2909 39H46.2959H46.3098H46.3237H46.3378H46.3518H46.366H46.3802H46.3945H46.4089H46.4233H46.4378H46.4523H46.4669H46.4816H46.4964H46.5112H46.5261H46.541H46.5561H46.5711H46.5863H46.6015H46.6168H46.6321H46.6475H46.663H46.6786H46.6942H46.7098H46.7256H46.7414H46.7572H46.7732H46.7892H46.8052H46.8214H46.8375H46.8538H46.8701H46.8865H46.9029H46.9194H46.936H46.9526H46.9693H46.9861H47.0029H47.0198H47.0367H47.0537H47.0708H47.0879H47.1051H47.1224H47.1397H47.1571H47.1745H47.1921H47.2096H47.2273H47.2449H47.2627H47.2805H47.2984H47.3163H47.3343H47.3524H47.3705H47.3887H47.4069H47.4252H47.4436H47.462H47.4805H47.499H47.5176H47.5363H47.555H47.5738H47.5926H47.6115H47.6305H47.6495H47.6686H47.6877H47.7069H47.7262H47.7455H47.7649H47.7843H47.8038H47.8233H47.8429H47.8626H47.8823H47.9021H47.9219H47.9418H47.9618H47.9818H48.0018H48.022H48.0421H48.0624H48.0827H48.103H48.1234H48.1439H48.1644H48.185H48.2056H48.2263H48.2471H48.2679H48.2887H48.3097H48.3306H48.3516H48.3727H48.3939H48.4151H48.4363H48.4576H48.479H48.5004H48.5218H48.5434H48.5649H48.5866H48.6082H48.63H48.6518H48.6736H48.6955H48.7175H48.7395H48.7616H48.7837H48.8058H48.8281H48.8503H48.8727H48.895H48.9175H48.94H48.9625H48.9851H49.0077H49.0304H49.0532H49.076H49.0988H49.1217H49.1447H49.1677H49.1908H49.2139H49.237H49.2603H49.2835H49.3068H49.3302H49.3536H49.3771H49.4006H49.4242H49.4478H49.4715H49.4952H49.519H49.5428H49.5667H49.5906H49.6146H49.6386H49.6626H49.6868H49.7109H49.7352H49.7594H49.7837H49.8081H49.8325H49.857H49.8815H49.9061H49.9307H49.9553H49.98H50.0048H50.0296H50.0544H50.0793H50.1043H50.1293H50.1543H50.1794H50.2045H50.2297H50.2549H50.2802H50.3055H50.3309H50.3563H50.3818H50.4073H50.4328H50.4584H50.4841H50.5098H50.5355H50.5613H50.5871H50.613H50.6389H50.6649H50.6909H50.717H50.7431H50.7692H50.7954H50.8216H50.8479H50.8743H50.9006H50.927H50.9535H50.98H51.0065H51.0331H51.0598H51.0864H51.1132H51.1399H51.1667H51.1936H51.2205H51.2474H51.2744H51.3014H51.3285H51.3556H51.3828H51.41H51.4372H51.4645H51.4918H51.5192H51.5466H51.574H51.6015H51.629H51.6566H51.6842H51.7119H51.7396H51.7673H51.7951H51.8229H51.8508H51.8787H51.9066H51.9346H51.9626H51.9907H52.0188H52.0469H52.0751H52.1033H52.1316H52.1599H52.1882H52.2166H52.245H52.2735H52.302H52.3305H52.3591H52.3877H52.4164H52.4451H52.4738H52.5026H52.5314H52.5602H52.5891H52.618H52.647H52.676H52.705H52.7341H52.7632H52.7923H52.8215H52.8508H52.88H52.9093H52.9386H52.968H52.9974H53.0269H53.0563H53.0859H53.1154H53.145H53.1746H53.2043H53.234H53.2637H53.2935H53.3233H53.3531H53.383H53.4129H53.4428H53.4728H53.5028H53.5329H53.563H53.5931H53.6232H53.6534H53.6836H53.7139H53.7442H53.7745H53.8049H53.8352H53.8657H53.8961H53.9266H53.9571H53.9877H54.0183H54.0489H54.0796H54.1102H54.141H54.1717H54.2025H54.2333H54.2642H54.2951H54.326H54.3569H54.3879H54.4189H54.45H54.481H54.5121H54.5433H54.5744H54.6056H54.6369H54.6681H54.6994H54.7307H54.7621H54.7935H54.8249H54.8563H54.8878H54.9193H54.9508H54.9824H55.014H55.0456H55.0773H55.1089H55.1407H55.1724H55.2042H55.236H55.2678H55.2997H55.3315H55.3635H55.3954H55.4274H55.4594H55.4914H55.5234H55.5555H55.5876H55.6198H55.6519H55.6841H55.7164H55.7486H55.7809H55.8132H55.8455H55.8779H55.9103H55.9427H55.9751H56.0076H56.0401H56.0726H56.1051H56.1377H56.1703H56.2029H56.2356H56.2682H56.3009H56.3337H56.3664H56.3992H56.432H56.4648H56.4976H56.5305H56.5634H56.5963H56.6293H56.6623H56.6953H56.7283H56.7613H56.7944H56.8275H56.8606H56.8937H56.9269H56.9601H56.9933H57.0265H57.0598H57.0931H57.1264H57.1597H57.1931H57.2264H57.2598H57.2933H57.3267H57.3602H57.3936H57.4271H57.4607H57.4942H57.5278H57.5614H57.595H57.6286H57.6623H57.696H57.7297H57.7634H57.7971H57.8309H57.8647H57.8985H57.9323H57.9662H58H58.0339H58.0677H58.1016H58.1354H58.1691H58.2029H58.2366H58.2704H58.3041H58.3377H58.3714H58.405H58.4387H58.4722H58.5058H58.5394H58.5729H58.6064H58.6399H58.6733H58.7068H58.7402H58.7736H58.807H58.8403H58.8736H58.907H58.9402H58.9735H59.0067H59.0399H59.0731H59.1063H59.1394H59.1725H59.2056H59.2387H59.2718H59.3048H59.3378H59.3707H59.4037H59.4366H59.4695H59.5024H59.5352H59.5681H59.6009H59.6336H59.6664H59.6991H59.7318H59.7645H59.7971H59.8298H59.8623H59.8949H59.9275H59.96H59.9925H60.0249H60.0574H60.0898H60.1222H60.1545H60.1869H60.2192H60.2514H60.2837H60.3159H60.3481H60.3803H60.4124H60.4445H60.4766H60.5086H60.5407H60.5727H60.6046H60.6366H60.6685H60.7004H60.7322H60.7641H60.7959H60.8276H60.8594H60.8911H60.9228H60.9544H60.986H61.0176H61.0492H61.0807H61.1122H61.1437H61.1752H61.2066H61.238H61.2693H61.3006H61.3319H61.3632H61.3944H61.4256H61.4568H61.4879H61.519H61.5501H61.5811H61.6121H61.6431H61.6741H61.705H61.7359H61.7667H61.7975H61.8283H61.8591H61.8898H61.9205H61.9511H61.9818H62.0124H62.0429H62.0734H62.1039H62.1344H62.1648H62.1952H62.2255H62.2559H62.2862H62.3164H62.3466H62.3768H62.407H62.4371H62.4672H62.4972H62.5272H62.5572H62.5871H62.6171H62.6469H62.6768H62.7066H62.7363H62.7661H62.7958H62.8254H62.855H62.8846H62.9142H62.9437H62.9732H63.0026H63.032H63.0614H63.0907H63.12H63.1493H63.1785H63.2077H63.2368H63.2659H63.295H63.3241H63.3531H63.382H63.4109H63.4398H63.4687H63.4975H63.5262H63.555H63.5837H63.6123H63.6409H63.6695H63.6981H63.7265H63.755H63.7834H63.8118H63.8402H63.8685H63.8967H63.9249H63.9531H63.9813H64.0094H64.0374H64.0654H64.0934H64.1214H64.1493H64.1771H64.205H64.2327H64.2605H64.2882H64.3158H64.3434H64.371H64.3985H64.426H64.4535H64.4809H64.5082H64.5356H64.5628H64.5901H64.6173H64.6444H64.6715H64.6986H64.7256H64.7526H64.7795H64.8064H64.8333H64.8601H64.8869H64.9136H64.9403H64.9669H64.9935H65.02H65.0465H65.073H65.0994H65.1258H65.1521H65.1784H65.2046H65.2308H65.257H65.2831H65.3091H65.3351H65.3611H65.387H65.4129H65.4387H65.4645H65.4903H65.516H65.5416H65.5672H65.5928H65.6183H65.6437H65.6691H65.6945H65.7198H65.7451H65.7703H65.7955H65.8207H65.8457H65.8708H65.8958H65.9207H65.9456H65.9705H65.9953H66.02H66.0447H66.0694H66.094H66.1185H66.1431H66.1675H66.1919H66.2163H66.2406H66.2649H66.2891H66.3133H66.3374H66.3615H66.3855H66.4095H66.4334H66.4573H66.4811H66.5048H66.5286H66.5522H66.5759H66.5994H66.6229H66.6464H66.6698H66.6932H66.7165H66.7398H66.763H66.7862H66.8093H66.8323H66.8553H66.8783H66.9012H66.9241H66.9469H66.9696H66.9923H67.0149H67.0375H67.0601H67.0826H67.105H67.1274H67.1497H67.172H67.1942H67.2164H67.2385H67.2606H67.2826H67.3045H67.3264H67.3483H67.3701H67.3918H67.4135H67.4351H67.4567H67.4782H67.4997H67.5211H67.5424H67.5637H67.585H67.6062H67.6273H67.6484H67.6694H67.6904H67.7113H67.7322H67.753H67.7737H67.7944H67.815H67.8356H67.8561H67.8766H67.897H67.9174H67.9377H67.9579H67.9781H67.9982H68.0183H68.0383H68.0582H68.0781H68.098H68.1177H68.1375H68.1571H68.1767H68.1963H68.2158H68.2352H68.2546H68.2739H68.2931H68.3123H68.3315H68.3505H68.3696H68.3885H68.4074H68.4263H68.445H68.4638H68.4824H68.501H68.5196H68.538H68.5565H68.5748H68.5931H68.6114H68.6295H68.6477H68.6657H68.6837H68.7017H68.7195H68.7373H68.7551H68.7728H68.7904H68.808H68.8255H68.8429H68.8603H68.8776H68.8949H68.9121H68.9292H68.9463H68.9633H68.9803H68.9971H69.014H69.0307H69.0474H69.064H69.0806H69.0971H69.1136H69.1299H69.1463H69.1625H69.1787H69.1948H69.2109H69.2269H69.2428H69.2587H69.2745H69.2902H69.3059H69.3215H69.337H69.3525H69.3679H69.3833H69.3985H69.4137H69.4289H69.444H69.459H69.474H69.4888H69.5037H69.5184H69.5331H69.5477H69.5623H69.5768H69.5912H69.6055H69.6198H69.6341H69.6482H69.6623H69.6763H69.6903H69.7041ZM54.0511 48.5787C48.413 47.2538 46.2777 42.9989 45.1512 38.6135C45.0709 38.301 45.3068 38 45.6294 38H58H70.3706C70.6933 38 70.9291 38.301 70.8489 38.6135C69.7223 42.9989 67.587 47.2538 61.9489 48.5787C61.9117 49.6517 61.9109 50.727 61.9101 51.7714C61.9063 56.7347 61.903 61 58 61C54.097 61 54.0938 56.7347 54.09 51.7714C54.0892 50.727 54.0883 49.6517 54.0511 48.5787ZM55.0581 48.7775C55.0886 49.7939 55.0893 50.805 55.09 51.7723V51.7738C55.0901 51.9676 55.0903 52.1596 55.0906 52.3496C55.0938 53.9266 55.1135 55.3511 55.2671 56.5617C55.4227 57.7885 55.7008 58.6527 56.117 59.1982C56.483 59.6779 57.022 60 58 60C58.978 60 59.5171 59.6779 59.8831 59.1982C60.2992 58.6527 60.5774 57.7885 60.733 56.5617C60.8865 55.3511 60.9063 53.9266 60.9094 52.3496C60.9098 52.1596 60.9099 51.9676 60.9101 51.7739V51.7723C60.9108 50.805 60.9115 49.7939 60.942 48.7775C60.0443 48.9228 59.0664 49 58 49C56.9336 49 55.9557 48.9228 55.0581 48.7775Z" fill="#2B5EAE"/>
<path d="M39.3434 49.4422C39.3401 49.462 39.3369 49.4813 39.3337 49.5H22.6663C22.6631 49.4813 22.6599 49.462 22.6566 49.4422C22.6056 49.1382 22.5338 48.6976 22.4506 48.1525C22.2842 47.062 22.0725 45.5546 21.891 43.8871C21.545 40.7069 21.3177 37.0114 21.6951 34.5H40.3049C40.6823 37.0114 40.455 40.7069 40.109 43.8871C39.9275 45.5546 39.7158 47.062 39.5494 48.1525C39.4662 48.6976 39.3944 49.1382 39.3434 49.4422Z" stroke="#2B5EAE"/>
<rect x="20.5" y="49.5" width="21" height="2" rx="1" stroke="#2B5EAE"/>
<rect x="20.5" y="32.5" width="21" height="2" rx="0.5" stroke="#2B5EAE"/>
<path d="M27.5 62L26 69.5" stroke="#2B5EAE" stroke-linecap="round"/>
<path d="M34.5 62L36 69.5" stroke="#2B5EAE" stroke-linecap="round"/>
<path d="M22.5 69.5H39.5" stroke="#2B5EAE" stroke-linecap="round"/>
<path d="M57.5 38V32.5C57.5 31 58.75 29.9375 60 30.0001C61.5 30.0001 62.5 31.2501 62.5 32.0001C62.5 33.5001 62.5 34 62.5 34" stroke="#2B5EAE" stroke-linecap="round"/>
<path d="M49.5 41.5C49.5 42 51.5 45 54.5 45.5" stroke="#2B5EAE" stroke-linecap="round"/>
<path d="M25.5 55.5C25.5 56 26.5 58.5 29 59.5" stroke="#2B5EAE" stroke-linecap="round"/>
<path d="M59.5 15V3" stroke="#2B5EAE" stroke-linecap="round"/>
<path d="M57.6491 15.7549C57.7376 15.5974 57.9042 15.5 58.0848 15.5H60.9152C61.0958 15.5 61.2624 15.5974 61.3509 15.7549L64.7259 21.7549C64.9134 22.0882 64.6726 22.5 64.2902 22.5H54.7098C54.3274 22.5 54.0866 22.0882 54.2741 21.7549L57.6491 15.7549Z" stroke="#2B5EAE"/>
<path d="M14 44V43.5H13.5H8.5H8V44V46.5H5.5L5.5 40.5L16.5 40.5V46.5H14V44Z" stroke="#2B5EAE"/>
<path d="M8 43.5L14 43.5V50.8092C14 50.8092 14 50.8092 14 50.8092C13.9999 50.8097 13.999 50.8125 13.9961 50.8175C13.9898 50.8283 13.975 50.8473 13.9461 50.8685C13.883 50.9147 13.7992 50.9376 13.7361 50.9332C13.3583 50.9066 12.8971 50.955 12.4284 51.1949C11.634 51.6017 10.866 51.6017 10.0716 51.1949C9.40711 50.8547 8.61288 50.9049 8.10077 50.9865C8.07535 50.9905 8.04336 50.983 8.01879 50.964C8.00782 50.9555 8.00283 50.948 8.0011 50.9447C7.99999 50.9426 7.99999 50.9421 8 50.9412L8 50.941V43.5Z" stroke="#2B5EAE"/>
</svg>
