<svg width="32" height="32" viewBox="0 0 32 32" fill="none" xmlns="http://www.w3.org/2000/svg">
<g clip-path="url(#clip0_171_753)">
<g filter="url(#filter0_d_171_753)">
<path fill-rule="evenodd" clip-rule="evenodd" d="M28 7.5H4C2.89543 7.5 2 8.39543 2 9.5V14.3395C2 14.3931 2.00215 14.4466 2.00645 14.5H29.992C29.9973 14.4407 30 14.3812 30 14.3217V9.5C30 8.39543 29.1046 7.5 28 7.5ZM30.8315 15.5L30.9488 14.8736C30.9829 14.6916 31 14.5068 31 14.3217V9.5C31 7.84315 29.6569 6.5 28 6.5H4C2.34315 6.5 1 7.84314 1 9.5V14.3395C1 14.5128 1.01502 14.6858 1.04489 14.8566L1.15747 15.5H30.8315Z" fill="#2B5EAE"/>
<path fill-rule="evenodd" clip-rule="evenodd" d="M2.79338 19.5L29.2066 19.5L29.8316 15.5L2.16838 15.5L2.79338 19.5ZM1.80537 19.6544C1.88143 20.1412 2.3007 20.5 2.79338 20.5L29.2066 20.5C29.6993 20.5 30.1186 20.1412 30.1946 19.6544L31 14.5L1 14.5L1.80537 19.6544Z" fill="#2B5EAE"/>
<path d="M7 17.5H25" stroke="#2B5EAE" stroke-width="0.8" stroke-linecap="round"/>
<path d="M8.3 21.5C8.3 21.5 7.49999 22.7 7.89998 23.5C8.29996 24.3 7.5 25.5 7.5 25.5" stroke="#2B5EAE" stroke-linecap="round"/>
<path d="M16.3 21.5C16.3 21.5 15.5 22.7 15.9 23.5C16.3 24.3 15.5 25.5 15.5 25.5" stroke="#2B5EAE" stroke-linecap="round"/>
<path d="M24.3 21.5C24.3 21.5 23.5 22.7 23.9 23.5C24.3 24.3 23.5 25.5 23.5 25.5" stroke="#2B5EAE" stroke-linecap="round"/>
</g>
</g>
<defs>
<filter id="filter0_d_171_753" x="-2" y="4.5" width="36" height="25.5001" filterUnits="userSpaceOnUse" color-interpolation-filters="sRGB">
<feFlood flood-opacity="0" result="BackgroundImageFix"/>
<feColorMatrix in="SourceAlpha" type="matrix" values="0 0 0 0 0 0 0 0 0 0 0 0 0 0 0 0 0 0 127 0" result="hardAlpha"/>
<feOffset dy="1"/>
<feGaussianBlur stdDeviation="1.5"/>
<feComposite in2="hardAlpha" operator="out"/>
<feColorMatrix type="matrix" values="0 0 0 0 0.0705903 0 0 0 0 0.16166 0 0 0 0 0.395833 0 0 0 0.25 0"/>
<feBlend mode="normal" in2="BackgroundImageFix" result="effect1_dropShadow_171_753"/>
<feBlend mode="normal" in="SourceGraphic" in2="effect1_dropShadow_171_753" result="shape"/>
</filter>
<clipPath id="clip0_171_753">
<rect width="32" height="32" fill="white"/>
</clipPath>
</defs>
</svg>
