<svg width="32" height="32" viewBox="0 0 32 32" fill="none" xmlns="http://www.w3.org/2000/svg">
<g filter="url(#filter0_d_79_299)">
<mask id="path-1-inside-1_79_299" fill="white">
<path fill-rule="evenodd" clip-rule="evenodd" d="M23.783 6.93268L23.783 6.93269V19.6135C24.7854 20.5107 25.4163 21.8145 25.4163 23.2657C25.4163 25.9719 23.2225 28.1656 20.5164 28.1656C17.8103 28.1656 15.6165 25.9719 15.6165 23.2657C15.6165 21.8145 16.2474 20.5107 17.2498 19.6135V6.93269V6.93268C17.2498 5.12859 18.7123 3.66608 20.5164 3.66608C22.3205 3.66608 23.783 5.12859 23.783 6.93268Z"/>
</mask>
<path d="M23.783 6.93269H24.783V6.87043L24.7753 6.80866L23.783 6.93269ZM23.783 6.93268H22.783V6.99494L22.7907 7.05672L23.783 6.93268ZM23.783 19.6135H22.783V20.0605L23.1161 20.3586L23.783 19.6135ZM17.2498 19.6135L17.9167 20.3586L18.2498 20.0605V19.6135H17.2498ZM24.7753 6.80866L24.7753 6.80865L22.7907 7.05672L22.7907 7.05673L24.7753 6.80866ZM24.783 19.6135V6.93269H22.783V19.6135H24.783ZM23.1161 20.3586C23.9156 21.0741 24.4163 22.1108 24.4163 23.2657H26.4163C26.4163 21.5183 25.6553 19.9472 24.4499 18.8683L23.1161 20.3586ZM24.4163 23.2657C24.4163 25.4196 22.6703 27.1656 20.5164 27.1656V29.1656C23.7748 29.1656 26.4163 26.5242 26.4163 23.2657H24.4163ZM20.5164 27.1656C18.3625 27.1656 16.6165 25.4196 16.6165 23.2657H14.6165C14.6165 26.5242 17.258 29.1656 20.5164 29.1656V27.1656ZM16.6165 23.2657C16.6165 22.1108 17.1173 21.0741 17.9167 20.3586L16.5829 18.8683C15.3775 19.9472 14.6165 21.5183 14.6165 23.2657H16.6165ZM16.2498 6.93269V19.6135H18.2498V6.93269H16.2498ZM16.2498 6.93268V6.93269H18.2498V6.93268H16.2498ZM20.5164 2.66608C18.16 2.66608 16.2498 4.5763 16.2498 6.93268H18.2498C18.2498 5.68087 19.2646 4.66608 20.5164 4.66608V2.66608ZM24.783 6.93268C24.783 4.5763 22.8728 2.66608 20.5164 2.66608V4.66608C21.7682 4.66608 22.783 5.68087 22.783 6.93268H24.783Z" fill="#2B5EAE" mask="url(#path-1-inside-1_79_299)"/>
<circle cx="20.5164" cy="23.2657" r="2.04163" fill="#2B5EAE"/>
<path d="M20.5164 22.4491V11.0159" stroke="#2B5EAE" stroke-linecap="round"/>
<path d="M27.0496 7.63684C27.3258 7.63684 27.5496 7.41298 27.5496 7.13684C27.5496 6.8607 27.3258 6.63684 27.0496 6.63684V7.63684ZM22.9664 7.63684H27.0496V6.63684H22.9664V7.63684Z" fill="#2B5EAE"/>
<path d="M25.8246 12.3326C26.1008 12.3326 26.3246 12.1087 26.3246 11.8326C26.3246 11.5564 26.1008 11.3326 25.8246 11.3326V12.3326ZM22.9664 12.3326H25.8246V11.3326H22.9664V12.3326Z" fill="#2B5EAE"/>
<path d="M24.5997 17.2325C24.8758 17.2325 25.0997 17.0087 25.0997 16.7325C25.0997 16.4564 24.8758 16.2325 24.5997 16.2325V17.2325ZM22.9664 17.2325H24.5997V16.2325H22.9664V17.2325Z" fill="#2B5EAE"/>
<path d="M12.2014 13.8099C11.5116 13.8099 10.9177 13.6537 10.4196 13.3413C9.92468 13.0257 9.54419 12.5911 9.27816 12.0374C9.01213 11.4837 8.87912 10.8496 8.87912 10.135C8.87912 9.41113 9.01522 8.77235 9.28744 8.21864C9.55966 7.66183 9.94324 7.22721 10.4382 6.91478C10.9331 6.60235 11.5162 6.44613 12.1875 6.44613C12.7288 6.44613 13.2114 6.54667 13.6352 6.74774C14.059 6.94571 14.4008 7.22412 14.6606 7.58295C14.9236 7.94178 15.0798 8.36093 15.1293 8.84041H13.779C13.7048 8.50632 13.5347 8.21864 13.2686 7.97735C13.0057 7.73607 12.653 7.61543 12.2107 7.61543C11.824 7.61543 11.4853 7.71751 11.1945 7.92167C10.9068 8.12274 10.6826 8.41043 10.5217 8.78473C10.3608 9.15593 10.2804 9.59519 10.2804 10.1025C10.2804 10.6222 10.3593 11.0707 10.5171 11.4481C10.6748 11.8255 10.8975 12.1178 11.1852 12.3251C11.476 12.5324 11.8178 12.636 12.2107 12.636C12.4736 12.636 12.7118 12.588 12.9253 12.4921C13.1418 12.3932 13.3228 12.2524 13.4681 12.0699C13.6166 11.8874 13.7203 11.6678 13.779 11.411H15.1293C15.0798 11.8719 14.9298 12.2833 14.6792 12.6453C14.4286 13.0072 14.093 13.2918 13.6723 13.499C13.2547 13.7063 12.7644 13.8099 12.2014 13.8099Z" fill="#2B5EAE"/>
<circle cx="7.04164" cy="5.70771" r="1.54163" stroke="#2B5EAE"/>
</g>
<defs>
<filter id="filter0_d_79_299" x="2.55005" y="2.03277" width="27.4495" height="29.3995" filterUnits="userSpaceOnUse" color-interpolation-filters="sRGB">
<feFlood flood-opacity="0" result="BackgroundImageFix"/>
<feColorMatrix in="SourceAlpha" type="matrix" values="0 0 0 0 0 0 0 0 0 0 0 0 0 0 0 0 0 0 127 0" result="hardAlpha"/>
<feOffset dy="0.816652"/>
<feGaussianBlur stdDeviation="1.22498"/>
<feComposite in2="hardAlpha" operator="out"/>
<feColorMatrix type="matrix" values="0 0 0 0 0.0705903 0 0 0 0 0.16166 0 0 0 0 0.395833 0 0 0 0.25 0"/>
<feBlend mode="normal" in2="BackgroundImageFix" result="effect1_dropShadow_79_299"/>
<feBlend mode="normal" in="SourceGraphic" in2="effect1_dropShadow_79_299" result="shape"/>
</filter>
</defs>
</svg>
