<svg width="32" height="32" viewBox="0 0 32 32" fill="none" xmlns="http://www.w3.org/2000/svg">
<g filter="url(#filter0_d_155_612)">
<path fill-rule="evenodd" clip-rule="evenodd" d="M4.19995 4.19995V27.7999H27.7999V4.19995H4.19995ZM3.99995 3.19995C3.55812 3.19995 3.19995 3.55812 3.19995 3.99995V28C3.19995 28.4418 3.55812 28.7999 3.99995 28.7999H28C28.4418 28.7999 28.7999 28.4418 28.7999 28V3.99995C28.7999 3.55812 28.4418 3.19995 28 3.19995H3.99995Z" fill="#2B5EAE"/>
<path fill-rule="evenodd" clip-rule="evenodd" d="M16 23.7999C20.3078 23.7999 23.7999 20.3078 23.7999 16C23.7999 11.6921 20.3078 8.19995 16 8.19995C11.6921 8.19995 8.19995 11.6921 8.19995 16C8.19995 20.3078 11.6921 23.7999 16 23.7999ZM16 24.7999C20.8601 24.7999 24.7999 20.8601 24.7999 16C24.7999 11.1398 20.8601 7.19995 16 7.19995C11.1398 7.19995 7.19995 11.1398 7.19995 16C7.19995 20.8601 11.1398 24.7999 16 24.7999Z" fill="#2B5EAE"/>
<path fill-rule="evenodd" clip-rule="evenodd" d="M12 16.6C12.3314 16.6 12.6 16.3314 12.6 16C12.6 15.6687 12.3314 15.4 12 15.4C11.6687 15.4 11.4 15.6687 11.4 16C11.4 16.3314 11.6687 16.6 12 16.6ZM12 17.6C12.8837 17.6 13.6 16.8837 13.6 16C13.6 15.1164 12.8837 14.4 12 14.4C11.1164 14.4 10.4 15.1164 10.4 16C10.4 16.8837 11.1164 17.6 12 17.6Z" fill="#2B5EAE"/>
<path fill-rule="evenodd" clip-rule="evenodd" d="M20 16.6C20.3314 16.6 20.6 16.3314 20.6 16C20.6 15.6687 20.3314 15.4 20 15.4C19.6687 15.4 19.4 15.6687 19.4 16C19.4 16.3314 19.6687 16.6 20 16.6ZM20 17.6C20.8837 17.6 21.6 16.8837 21.6 16C21.6 15.1164 20.8837 14.4 20 14.4C19.1164 14.4 18.4 15.1164 18.4 16C18.4 16.8837 19.1164 17.6 20 17.6Z" fill="#2B5EAE"/>
<path fill-rule="evenodd" clip-rule="evenodd" d="M15.5 9.6L15.5 8L16.5 8L16.5 9.6C16.5 9.87614 16.2761 10.1 16 10.1C15.7239 10.1 15.5 9.87614 15.5 9.6Z" fill="#2B5EAE"/>
<path fill-rule="evenodd" clip-rule="evenodd" d="M16.5 22.4V24H15.5V22.4C15.5 22.1239 15.7239 21.9 16 21.9C16.2761 21.9 16.5 22.1239 16.5 22.4Z" fill="#2B5EAE"/>
</g>
<defs>
<filter id="filter0_d_155_612" x="0.799956" y="1.59995" width="30.4" height="30.4" filterUnits="userSpaceOnUse" color-interpolation-filters="sRGB">
<feFlood flood-opacity="0" result="BackgroundImageFix"/>
<feColorMatrix in="SourceAlpha" type="matrix" values="0 0 0 0 0 0 0 0 0 0 0 0 0 0 0 0 0 0 127 0" result="hardAlpha"/>
<feOffset dy="0.799998"/>
<feGaussianBlur stdDeviation="1.2"/>
<feComposite in2="hardAlpha" operator="out"/>
<feColorMatrix type="matrix" values="0 0 0 0 0.0705903 0 0 0 0 0.16166 0 0 0 0 0.395833 0 0 0 0.25 0"/>
<feBlend mode="normal" in2="BackgroundImageFix" result="effect1_dropShadow_155_612"/>
<feBlend mode="normal" in="SourceGraphic" in2="effect1_dropShadow_155_612" result="shape"/>
</filter>
</defs>
</svg>
