<svg width="32" height="32" viewBox="0 0 32 32" fill="none" xmlns="http://www.w3.org/2000/svg">
<g filter="url(#filter0_d_262_1502)">
<path fill-rule="evenodd" clip-rule="evenodd" d="M25.4 6.60004H6.60001V9.40004H25.4V6.60004ZM5.60001 5.60004V9.60004C5.60001 10.0419 5.95818 10.4 6.40001 10.4H25.6C26.0418 10.4 26.4 10.0419 26.4 9.60004V5.60004H5.60001Z" fill="#2B5EAE"/>
<path d="M12 16.8C12.8 17.44 14 18.4 16 18.4C18 18.4 19.2 17.44 20 16.8" stroke="#2B5EAE" stroke-linecap="round"/>
<path d="M8.80002 18.8C9.82859 19.7143 12.4 22 16 22C19.6 22 22.1714 19.7143 23.2 18.8" stroke="#2B5EAE" stroke-linecap="round"/>
<path d="M5.60001 21.2C7.08572 22.5714 10.8 26 16 26C21.2 26 24.9143 22.5714 26.4 21.2" stroke="#2B5EAE" stroke-linecap="round"/>
<path fill-rule="evenodd" clip-rule="evenodd" d="M11.2 10.4C11.2 10.4 11.2 10.4 11.2 10.4C11.2 13.0509 13.349 15.2 16 15.2C18.6509 15.2 20.8 13.0509 20.8 10.4C20.8 10.4 20.8 10.4 20.8 10.4H19.8C19.8 10.4 19.8 10.4 19.8 10.4C19.8 12.4987 18.0987 14.2 16 14.2C13.9013 14.2 12.2 12.4987 12.2 10.4C12.2 10.4 12.2 10.4 12.2 10.4H11.2Z" fill="#2B5EAE"/>
</g>
<defs>
<filter id="filter0_d_262_1502" x="-2.4" y="-1.6" width="36.8" height="36.8" filterUnits="userSpaceOnUse" color-interpolation-filters="sRGB">
<feFlood flood-opacity="0" result="BackgroundImageFix"/>
<feColorMatrix in="SourceAlpha" type="matrix" values="0 0 0 0 0 0 0 0 0 0 0 0 0 0 0 0 0 0 127 0" result="hardAlpha"/>
<feOffset dy="0.8"/>
<feGaussianBlur stdDeviation="1.2"/>
<feComposite in2="hardAlpha" operator="out"/>
<feColorMatrix type="matrix" values="0 0 0 0 0.0705903 0 0 0 0 0.16166 0 0 0 0 0.395833 0 0 0 0.25 0"/>
<feBlend mode="normal" in2="BackgroundImageFix" result="effect1_dropShadow_262_1502"/>
<feBlend mode="normal" in="SourceGraphic" in2="effect1_dropShadow_262_1502" result="shape"/>
</filter>
</defs>
</svg>
