<svg width="32" height="34" viewBox="0 0 32 34" fill="none" xmlns="http://www.w3.org/2000/svg">
<g filter="url(#filter0_d_79_397)">
<mask id="path-1-inside-1_79_397" fill="white">
<path d="M8.79999 2.39996H23.2V4.79996C23.2 5.24179 22.8418 5.59996 22.4 5.59996H9.59999C9.15816 5.59996 8.79999 5.24179 8.79999 4.79996V2.39996Z"/>
</mask>
<path d="M8.79999 2.39996H23.2V4.79996C23.2 5.24179 22.8418 5.59996 22.4 5.59996H9.59999C9.15816 5.59996 8.79999 5.24179 8.79999 4.79996V2.39996Z" stroke="#2B5EAE" stroke-width="2" mask="url(#path-1-inside-1_79_397)"/>
<path fill-rule="evenodd" clip-rule="evenodd" d="M12.3166 5.59998C12.1751 7.77199 11.8883 9.77422 11.7129 10.2476C11.3638 11.1894 10.89 12.0505 10.426 12.8938C9.5974 14.3998 8.79999 15.8492 8.79999 17.6C8.79999 21.5764 12.0235 24.8 16 24.8C19.9764 24.8 23.2 21.5764 23.2 17.6C23.2 15.7985 22.4049 14.3774 21.5276 12.8095C21.0836 12.0159 20.6185 11.1847 20.2249 10.2476C20.026 9.77424 19.7848 7.77188 19.6692 5.59998H18.6678C18.7053 6.31882 18.7565 7.01987 18.8153 7.65676C18.8775 8.32935 18.9491 8.93999 19.0242 9.43089C19.0926 9.87779 19.1794 10.3409 19.3029 10.6348C19.7178 11.6226 20.2343 12.5469 20.692 13.366C20.8999 13.7379 21.0956 14.0882 21.2642 14.4128C21.8333 15.5088 22.2 16.4799 22.2 17.6C22.2 21.0241 19.4242 23.8 16 23.8C12.5758 23.8 9.79999 21.0241 9.79999 17.6C9.79999 16.4789 10.1943 15.4712 10.7793 14.3442C10.928 14.0577 11.0943 13.7555 11.2679 13.4399L11.2679 13.4399L11.2679 13.4399C11.7432 12.5761 12.2737 11.6118 12.6505 10.5951C12.7493 10.3286 12.8348 9.89405 12.9087 9.44047C12.988 8.95337 13.0688 8.34519 13.1413 7.67195C13.2102 7.0319 13.2724 6.32543 13.3187 5.59998H12.3166Z" fill="#2B5EAE"/>
<line x1="12.8" y1="8.29996" x2="19.2" y2="8.29996" stroke="#2B5EAE"/>
<path d="M12 16.8C11.6 18.4 12.8 21.2 15.6 21.6" stroke="#2B5EAE" stroke-linecap="round"/>
<path d="M6.39999 17.6H3.19999" stroke="#2B5EAE" stroke-linecap="round"/>
<path d="M25.6 17.6H28.8" stroke="#2B5EAE" stroke-linecap="round"/>
<path d="M7.20001 22.4L4.50578 24.1266" stroke="#2B5EAE" stroke-linecap="round"/>
<path d="M24.8 22.4L27.4942 24.1266" stroke="#2B5EAE" stroke-linecap="round"/>
<path d="M11.2 25.6L9.3121 28.1837" stroke="#2B5EAE" stroke-linecap="round"/>
<path d="M20.8 25.6L22.6879 28.1837" stroke="#2B5EAE" stroke-linecap="round"/>
<path d="M16 26.4V29.6" stroke="#2B5EAE" stroke-linecap="round"/>
<path d="M8 12.7872L5.22138 11.1999" stroke="#2B5EAE" stroke-linecap="round"/>
<path d="M24 12.7872L26.7786 11.1999" stroke="#2B5EAE" stroke-linecap="round"/>
</g>
<defs>
<filter id="filter0_d_79_397" x="-2.4" y="-1.6" width="36.8" height="36.8" filterUnits="userSpaceOnUse" color-interpolation-filters="sRGB">
<feFlood flood-opacity="0" result="BackgroundImageFix"/>
<feColorMatrix in="SourceAlpha" type="matrix" values="0 0 0 0 0 0 0 0 0 0 0 0 0 0 0 0 0 0 127 0" result="hardAlpha"/>
<feOffset dy="0.8"/>
<feGaussianBlur stdDeviation="1.2"/>
<feComposite in2="hardAlpha" operator="out"/>
<feColorMatrix type="matrix" values="0 0 0 0 0.0705903 0 0 0 0 0.16166 0 0 0 0 0.395833 0 0 0 0.25 0"/>
<feBlend mode="normal" in2="BackgroundImageFix" result="effect1_dropShadow_79_397"/>
<feBlend mode="normal" in="SourceGraphic" in2="effect1_dropShadow_79_397" result="shape"/>
</filter>
</defs>
</svg>
