<svg width="33" height="32" viewBox="0 0 33 32" fill="none" xmlns="http://www.w3.org/2000/svg">
<g clip-path="url(#clip0_158_340)">
<g filter="url(#filter0_d_158_340)">
<path fill-rule="evenodd" clip-rule="evenodd" d="M7.5 3.5V27.7206L15.0109 24.4851C15.6423 24.2132 16.3577 24.2132 16.9891 24.4851L24.5 27.7206V3.5H7.5ZM7 2C6.44772 2 6 2.44771 6 3V28.4804C6 29.1991 6.73555 29.6832 7.39562 29.3988L15.6044 25.8627C15.8569 25.7539 16.1431 25.7539 16.3956 25.8627L24.6044 29.3988C25.2645 29.6831 26 29.1991 26 28.4804V3C26 2.44772 25.5523 2 25 2H7Z" fill="#2B5EAE"/>
<path fill-rule="evenodd" clip-rule="evenodd" d="M16 9.90908L14.7612 11.9676C14.4819 12.4316 14.0264 12.7626 13.4988 12.8848L11.1582 13.4269L12.7332 15.2412C13.0882 15.6502 13.2622 16.1856 13.2153 16.7252L13.0076 19.1187L15.2198 18.1815C15.7185 17.9703 16.2815 17.9703 16.7802 18.1815L18.9924 19.1187L18.7847 16.7252C18.7378 16.1856 18.9118 15.6502 19.2668 15.2412L20.8418 13.4269L18.5012 12.8848C17.9736 12.7626 17.5181 12.4316 17.2388 11.9676L16 9.90908ZM16.4284 7.71191C16.2341 7.389 15.7659 7.389 15.5716 7.71191L13.4759 11.1942C13.4061 11.3102 13.2923 11.3929 13.1604 11.4234L9.20095 12.3405C8.83379 12.4255 8.68913 12.8707 8.93618 13.1553L11.6004 16.2245C11.6892 16.3267 11.7327 16.4606 11.721 16.5955L11.3696 20.6445C11.337 21.0199 11.7157 21.2951 12.0627 21.1481L15.805 19.5627C15.9296 19.5099 16.0704 19.5099 16.195 19.5627L19.9373 21.1481C20.2843 21.2951 20.663 21.0199 20.6304 20.6445L20.279 16.5955C20.2673 16.4606 20.3108 16.3267 20.3996 16.2245L23.0638 13.1553C23.3109 12.8707 23.1662 12.4255 22.799 12.3405L18.8396 11.4234C18.7077 11.3929 18.5939 11.3102 18.5241 11.1942L16.4284 7.71191Z" fill="#2B5EAE"/>
</g>
</g>
<defs>
<filter id="filter0_d_158_340" x="3" y="0" width="26" height="33.4814" filterUnits="userSpaceOnUse" color-interpolation-filters="sRGB">
<feFlood flood-opacity="0" result="BackgroundImageFix"/>
<feColorMatrix in="SourceAlpha" type="matrix" values="0 0 0 0 0 0 0 0 0 0 0 0 0 0 0 0 0 0 127 0" result="hardAlpha"/>
<feOffset dy="1"/>
<feGaussianBlur stdDeviation="1.5"/>
<feComposite in2="hardAlpha" operator="out"/>
<feColorMatrix type="matrix" values="0 0 0 0 0.0705903 0 0 0 0 0.16166 0 0 0 0 0.395833 0 0 0 0.25 0"/>
<feBlend mode="normal" in2="BackgroundImageFix" result="effect1_dropShadow_158_340"/>
<feBlend mode="normal" in="SourceGraphic" in2="effect1_dropShadow_158_340" result="shape"/>
</filter>
<clipPath id="clip0_158_340">
<rect width="33" height="32" fill="white"/>
</clipPath>
</defs>
</svg>
