<svg width="33" height="31" viewBox="0 0 33 31" fill="none" xmlns="http://www.w3.org/2000/svg">
<g filter="url(#filter0_d_179_314)">
<path fill-rule="evenodd" clip-rule="evenodd" d="M26.75 3.5H6.75C5.92157 3.5 5.25 4.17157 5.25 5V25C5.25 25.8284 5.92157 26.5 6.75 26.5H26.75C27.5784 26.5 28.25 25.8284 28.25 25V5C28.25 4.17157 27.5784 3.5 26.75 3.5ZM6.75 2C5.09315 2 3.75 3.34315 3.75 5V25C3.75 26.6569 5.09315 28 6.75 28H26.75C28.4069 28 29.75 26.6569 29.75 25V5C29.75 3.34315 28.4069 2 26.75 2H6.75Z" fill="#2B5EAE"/>
<path fill-rule="evenodd" clip-rule="evenodd" d="M8.5 6.75V23.25H25V6.75H8.5ZM8 5.25C7.44772 5.25 7 5.69772 7 6.25V23.75C7 24.3023 7.44772 24.75 8 24.75H25.5C26.0523 24.75 26.5 24.3023 26.5 23.75V6.25C26.5 5.69772 26.0523 5.25 25.5 5.25H8Z" fill="#2B5EAE"/>
<path d="M16.75 9.58337L16.75 16.625" stroke="#2B5EAE" stroke-width="1.5" stroke-linecap="round"/>
<circle cx="16.75" cy="20" r="1" fill="#2B5EAE"/>
</g>
<defs>
<filter id="filter0_d_179_314" x="0.75" y="0" width="32" height="32" filterUnits="userSpaceOnUse" color-interpolation-filters="sRGB">
<feFlood flood-opacity="0" result="BackgroundImageFix"/>
<feColorMatrix in="SourceAlpha" type="matrix" values="0 0 0 0 0 0 0 0 0 0 0 0 0 0 0 0 0 0 127 0" result="hardAlpha"/>
<feOffset dy="1"/>
<feGaussianBlur stdDeviation="1.5"/>
<feComposite in2="hardAlpha" operator="out"/>
<feColorMatrix type="matrix" values="0 0 0 0 0.0705903 0 0 0 0 0.16166 0 0 0 0 0.395833 0 0 0 0.25 0"/>
<feBlend mode="normal" in2="BackgroundImageFix" result="effect1_dropShadow_179_314"/>
<feBlend mode="normal" in="SourceGraphic" in2="effect1_dropShadow_179_314" result="shape"/>
</filter>
</defs>
</svg>
