<svg width="32" height="32" viewBox="0 0 32 32" fill="none" xmlns="http://www.w3.org/2000/svg">
<g clip-path="url(#clip0_158_346)">
<g filter="url(#filter0_d_158_346)">
<path fill-rule="evenodd" clip-rule="evenodd" d="M12.5951 23.791C12.6958 23.8351 12.7974 23.8772 12.9 23.9174C13.4863 24.1472 13.9584 24.649 14.1218 25.3025L14.6712 27.5H17.3288L17.8782 25.3025C18.0416 24.649 18.5137 24.1472 19.1 23.9174C19.2026 23.8772 19.3043 23.8351 19.4049 23.791C19.9822 23.5383 20.6715 23.559 21.2496 23.9059L23.1921 25.0714L25.0713 23.1921L23.9059 21.2496C23.559 20.6716 23.5382 19.9823 23.791 19.4049C23.835 19.3043 23.8772 19.2026 23.9174 19.1C24.1472 18.5137 24.649 18.0416 25.3025 17.8782L27.5 17.3288V14.6712L25.3025 14.1218C24.649 13.9584 24.1472 13.4863 23.9174 12.9C23.8973 12.8487 23.8767 12.7977 23.8557 12.7469C23.6315 12.2061 23.6437 11.5707 23.9401 11.0201L25.1103 8.84692L23.1531 6.88972L20.9799 8.05989C20.4301 8.35597 19.7949 8.36899 19.2533 8.14441C18.7139 7.92069 18.273 7.46338 18.0932 6.86416L17.384 4.5H14.616L13.9068 6.86416C13.727 7.46337 13.2861 7.92069 12.7467 8.14441C12.2051 8.36899 11.5699 8.35596 11.0201 8.05989L8.84686 6.88969L6.88966 8.8469L8.05988 11.0202C8.35594 11.57 8.36897 12.2051 8.1444 12.7467C7.92069 13.2862 7.46338 13.727 6.86419 13.9068L4.5 14.616V17.384L6.86416 18.0932C7.46259 18.2727 7.92029 18.7128 8.14432 19.2531C8.1654 19.304 8.18696 19.3546 8.209 19.4049C8.46174 19.9822 8.44099 20.6715 8.09414 21.2496L6.92862 23.1921L8.80788 25.0714L10.7504 23.9059C11.3285 23.559 12.0178 23.5383 12.5951 23.791ZM4.14436 17.2773C4.14413 17.2772 4.1439 17.2771 4.14367 17.2771L4 17.756L4.14367 17.2771L4.14436 17.2773ZM17.2773 4.1444L17.2771 4.14367L17.756 4L17.2771 4.14367C17.2771 4.14392 17.2772 4.14416 17.2773 4.1444ZM27.8787 14.7658C27.8785 14.7658 27.8783 14.7657 27.8781 14.7657L27.8787 14.7658ZM14.7658 27.8787L14.7657 27.8781L14.7658 27.8787ZM26.6074 9.23053C26.8168 8.8417 26.7463 8.36158 26.434 8.04932L23.9507 5.566C23.6384 5.25374 23.1583 5.18327 22.7695 5.39264L20.2688 6.73918C20.1326 6.81249 19.9708 6.81805 19.8279 6.75882C19.6852 6.69964 19.5743 6.58112 19.5299 6.43314L18.7138 3.71265C18.5869 3.28967 18.1976 3 17.756 3H14.244C13.8024 3 13.4131 3.28967 13.2862 3.71265L12.4701 6.43314C12.4257 6.58112 12.3148 6.69964 12.1721 6.75882C12.0292 6.81805 11.8674 6.81249 11.7312 6.73918L9.23046 5.39261C8.84164 5.18325 8.36152 5.25371 8.04926 5.56598L5.56594 8.04929C5.25368 8.36156 5.18321 8.84168 5.39258 9.2305L6.73917 11.7313C6.81247 11.8674 6.81803 12.0293 6.75881 12.1721C6.69963 12.3148 6.58113 12.4257 6.43317 12.4701L3.71265 13.2862C3.28967 13.4131 3 13.8024 3 14.244V17.756C3 18.1976 3.28967 18.5869 3.71265 18.7138L6.43314 19.5299C6.58112 19.5743 6.69954 19.685 6.75872 19.8277C6.78355 19.8876 6.80894 19.9471 6.8349 20.0064C6.90173 20.1591 6.89364 20.335 6.8079 20.4779L5.44153 22.7552C5.20544 23.1486 5.26745 23.6523 5.59191 23.9768L8.02326 26.4081C8.34773 26.7326 8.85139 26.7946 9.24487 26.5585L11.5222 25.1921C11.6651 25.1064 11.8409 25.0983 11.9936 25.1651C12.1121 25.217 12.2318 25.2666 12.3526 25.314C12.5077 25.3748 12.6262 25.5048 12.6666 25.6663L13.3106 28.2425C13.4219 28.6877 13.8219 29 14.2808 29H17.7192C18.1781 29 18.5781 28.6877 18.6894 28.2425L19.3334 25.6663C19.3738 25.5048 19.4923 25.3748 19.6474 25.314C19.7682 25.2666 19.8879 25.217 20.0064 25.1651C20.1591 25.0983 20.3349 25.1064 20.4778 25.1921L22.7551 26.5585C23.1486 26.7946 23.6522 26.7326 23.9767 26.4081L26.4081 23.9767C26.7325 23.6523 26.7945 23.1486 26.5584 22.7551L25.1921 20.4779C25.1063 20.335 25.0983 20.1591 25.1651 20.0064C25.217 19.8879 25.2666 19.7682 25.314 19.6474C25.3748 19.4923 25.5048 19.3738 25.6663 19.3334L28.2425 18.6894C28.6877 18.5781 29 18.1781 29 17.7192V14.2808C29 13.8219 28.6877 13.4219 28.2425 13.3106L25.6663 12.6666C25.5048 12.6262 25.3748 12.5077 25.314 12.3526C25.2903 12.2923 25.2661 12.2322 25.2413 12.1724C25.1821 12.0295 25.1875 11.8674 25.2608 11.7313L26.6074 9.23053ZM20.5 16C20.5 18.4853 18.4853 20.5 16 20.5C13.5147 20.5 11.5 18.4853 11.5 16C11.5 13.5147 13.5147 11.5 16 11.5C18.4853 11.5 20.5 13.5147 20.5 16ZM19 16C19 17.6569 17.6569 19 16 19C14.3431 19 13 17.6569 13 16C13 14.3431 14.3431 13 16 13C17.6569 13 19 14.3431 19 16Z" fill="#2B5EAE"/>
</g>
</g>
<defs>
<filter id="filter0_d_158_346" x="0" y="1" width="32" height="32" filterUnits="userSpaceOnUse" color-interpolation-filters="sRGB">
<feFlood flood-opacity="0" result="BackgroundImageFix"/>
<feColorMatrix in="SourceAlpha" type="matrix" values="0 0 0 0 0 0 0 0 0 0 0 0 0 0 0 0 0 0 127 0" result="hardAlpha"/>
<feOffset dy="1"/>
<feGaussianBlur stdDeviation="1.5"/>
<feComposite in2="hardAlpha" operator="out"/>
<feColorMatrix type="matrix" values="0 0 0 0 0.0705903 0 0 0 0 0.16166 0 0 0 0 0.395833 0 0 0 0.25 0"/>
<feBlend mode="normal" in2="BackgroundImageFix" result="effect1_dropShadow_158_346"/>
<feBlend mode="normal" in="SourceGraphic" in2="effect1_dropShadow_158_346" result="shape"/>
</filter>
<clipPath id="clip0_158_346">
<rect width="32" height="32" fill="white"/>
</clipPath>
</defs>
</svg>
