<svg width="33" height="31" viewBox="0 0 33 31" fill="none" xmlns="http://www.w3.org/2000/svg">
<g filter="url(#filter0_d_179_275)">
<path d="M22.5 27H27.5C28.0523 27 28.5 26.5523 28.5 26V4C28.5 3.44772 28.0523 3 27.5 3H5.5C4.94772 3 4.5 3.44772 4.5 4V26C4.5 26.5523 4.94771 27 5.5 27H15.6261C15.9096 27 16.1797 26.8797 16.3694 26.669L19.9286 22.7143" stroke="#2B5EAE" stroke-width="1.5" stroke-linecap="round"/>
<path d="M4.5 13.7143H16.0714M16.0714 13.7143V17.5714M16.0714 13.7143V10.2857M16.0714 3V5.57143M21.2143 13.7143H28.5" stroke="#2B5EAE" stroke-width="1.5" stroke-linecap="round"/>
</g>
<defs>
<filter id="filter0_d_179_275" x="0.75" y="0.25" width="31.5" height="31.5" filterUnits="userSpaceOnUse" color-interpolation-filters="sRGB">
<feFlood flood-opacity="0" result="BackgroundImageFix"/>
<feColorMatrix in="SourceAlpha" type="matrix" values="0 0 0 0 0 0 0 0 0 0 0 0 0 0 0 0 0 0 127 0" result="hardAlpha"/>
<feOffset dy="1"/>
<feGaussianBlur stdDeviation="1.5"/>
<feComposite in2="hardAlpha" operator="out"/>
<feColorMatrix type="matrix" values="0 0 0 0 0.0705903 0 0 0 0 0.16166 0 0 0 0 0.395833 0 0 0 0.25 0"/>
<feBlend mode="normal" in2="BackgroundImageFix" result="effect1_dropShadow_179_275"/>
<feBlend mode="normal" in="SourceGraphic" in2="effect1_dropShadow_179_275" result="shape"/>
</filter>
</defs>
</svg>
